<svg width="483" height="483" viewBox="0 0 483 483" fill="none" xmlns="http://www.w3.org/2000/svg">
<path d="M126.593 374.765C126.593 374.765 231.938 422.186 256.978 428.925C286.045 436.749 305.312 393.975 288.332 380.082C271.352 366.189 171.305 338.628 171.305 338.628L126.593 374.765Z" fill="url(#paint0_linear_218_2022)"/>
<path d="M110.085 279.991L227.684 37.567L394.692 208.356L170.811 350.556L110.085 279.991Z" fill="#F1F1F1"/>
<path d="M399.591 209.135C409.358 199.367 378.415 152.588 330.478 104.651C282.541 56.7136 235.762 25.7707 225.994 35.5381C216.227 45.3056 247.17 92.0846 295.107 140.022C343.044 187.959 389.823 218.902 399.591 209.135Z" fill="url(#paint1_linear_218_2022)"/>
<path d="M394.998 201.857C391.774 201.829 382.02 199.04 362.818 185.808C344.261 173.022 322.344 154.283 301.106 133.044C279.867 111.806 261.128 89.8893 248.341 71.3318C235.109 52.1294 232.32 42.3759 232.293 39.1515C235.517 39.1789 245.271 41.9681 264.473 55.1999C283.031 67.9866 304.947 86.7254 326.186 107.964C347.424 129.203 366.164 151.119 378.95 169.677C392.182 188.879 394.971 198.633 394.998 201.857Z" fill="white"/>
<mask id="mask0_218_2022" style="mask-type:luminance" maskUnits="userSpaceOnUse" x="232" y="39" width="163" height="163">
<path d="M394.997 201.857C391.773 201.83 382.019 199.041 362.817 185.809C344.26 173.022 322.343 154.283 301.105 133.045C279.866 111.806 261.127 89.8898 248.34 71.3323C235.108 52.1299 232.319 42.3763 232.292 39.152C235.516 39.1794 245.27 41.9686 264.472 55.2004C283.03 67.9871 326.125 65.5476 347.363 86.7863C368.602 108.025 366.162 151.12 378.949 169.677C392.181 188.88 394.97 198.633 394.997 201.857Z" fill="white"/>
</mask>
<g mask="url(#mask0_218_2022)">
<path d="M335.666 97.1904C350.414 111.938 354.425 131.839 338.7 147.563C322.976 163.288 298.273 164.079 283.525 149.331C268.777 134.583 269.569 109.88 285.293 94.1559C301.017 78.4316 320.918 82.4423 335.666 97.1904Z" fill="url(#paint2_linear_218_2022)"/>
</g>
<path d="M77.4221 305.393C84.9067 295.942 96.6957 283.445 112.832 273.322C131.102 300.244 155.307 323.142 184.696 342.526L147.664 379.558C141.76 385.462 132.437 386.208 125.685 381.297C112.15 371.453 90.2462 354.062 76.872 335.876C70.1604 326.749 70.3888 314.275 77.4221 305.393Z" fill="url(#paint3_linear_218_2022)"/>
<path d="M116.951 300.475L88.0995 329.326C87.1202 330.306 85.7426 330.656 84.4145 330.264C83.0866 329.872 82.12 328.829 81.83 327.475C81.7089 326.908 82.0716 326.352 82.6363 326.229C83.2028 326.108 83.7606 326.469 83.8824 327.036C84.0089 327.626 84.4298 328.08 85.009 328.252C85.588 328.423 86.1891 328.269 86.6159 327.843L115.468 298.991C116.1 298.358 116.101 297.329 115.468 296.696L113.415 294.643C112.782 294.01 111.753 294.01 111.12 294.643L82.0543 323.709C81.6446 324.119 80.9802 324.119 80.5704 323.709C80.1609 323.299 80.1605 322.635 80.5704 322.225L109.636 293.159C111.087 291.708 113.448 291.709 114.898 293.159L116.951 295.212C118.402 296.663 118.402 299.024 116.951 300.475Z" fill="#BDD0FB"/>
<path d="M127.157 315.825L98.3046 344.677C97.3253 345.656 95.9479 346.007 94.6196 345.615C93.2916 345.222 92.3251 344.179 92.0351 342.825C91.9145 342.259 92.2766 341.703 92.8412 341.579C93.4077 341.458 93.9659 341.819 94.0874 342.386C94.214 342.976 94.6349 343.431 95.2141 343.602C95.7931 343.773 96.3942 343.62 96.821 343.193L125.673 314.341C126.306 313.708 126.306 312.679 125.673 312.047L123.621 309.994C122.988 309.361 121.958 309.361 121.325 309.994L92.2594 339.06C91.8496 339.469 91.185 339.469 90.7755 339.06C90.366 338.65 90.3656 337.986 90.7755 337.576L119.841 308.51C121.292 307.059 123.653 307.059 125.104 308.51L127.157 310.563C128.607 312.013 128.607 314.374 127.157 315.825Z" fill="#BDD0FB"/>
<path d="M131.67 249.263C131.355 249.577 130.862 249.667 130.446 249.452C129.931 249.186 129.73 248.553 129.996 248.038L222.949 68.3146C223.215 67.8002 223.848 67.5987 224.363 67.8646C224.878 68.1309 225.079 68.7637 224.814 69.2785L131.861 249.003C131.809 249.101 131.745 249.188 131.67 249.263Z" fill="#E9EFFD"/>
<path d="M120.771 275.236C120.478 275.529 120.028 275.632 119.622 275.462C119.088 275.238 118.837 274.623 119.061 274.088L123.21 264.203C123.433 263.668 124.05 263.418 124.584 263.642C125.118 263.866 125.369 264.481 125.145 265.016L120.996 274.901C120.942 275.03 120.864 275.143 120.771 275.236Z" fill="url(#paint4_linear_218_2022)"/>
<path d="M144.695 328.217L115.843 357.069C114.864 358.048 113.486 358.399 112.158 358.006C110.83 357.614 109.863 356.571 109.573 355.217C109.452 354.65 109.814 354.094 110.379 353.971C110.946 353.85 111.503 354.21 111.625 354.777C111.751 355.368 112.173 355.823 112.752 355.994C113.331 356.165 113.932 356.012 114.359 355.585L143.211 326.733C143.844 326.1 143.844 325.071 143.211 324.438L141.158 322.385C140.525 321.753 139.496 321.753 138.863 322.385L109.797 351.451C109.388 351.861 108.723 351.861 108.314 351.451C107.904 351.042 107.904 350.377 108.314 349.967L137.379 320.902C138.83 319.451 141.191 319.451 142.641 320.901L144.694 322.954C146.146 324.406 146.146 326.766 144.695 328.217Z" fill="#BDD0FB"/>
<path d="M164.006 342.126L135.154 370.978C134.175 371.957 132.798 372.308 131.47 371.915C130.141 371.523 129.175 370.48 128.885 369.126C128.763 368.559 129.126 368.003 129.691 367.88C130.257 367.759 130.815 368.12 130.936 368.686C131.063 369.277 131.484 369.732 132.064 369.903C132.643 370.074 133.244 369.921 133.671 369.494L162.522 340.642C163.155 340.01 163.156 338.98 162.523 338.348L160.47 336.294C159.837 335.662 158.808 335.662 158.175 336.295L129.109 365.36C128.699 365.77 128.035 365.77 127.625 365.36C127.216 364.951 127.215 364.287 127.625 363.877L156.691 334.811C158.142 333.36 160.503 333.36 161.953 334.811L164.006 336.864C165.457 338.315 165.457 340.675 164.006 342.126Z" fill="#BDD0FB"/>
<path d="M280.085 406.669C278.756 407.999 277.269 409.199 275.636 410.247C268.492 414.835 259.849 415.743 251.922 412.737L177.661 384.578C177.119 384.373 176.847 383.767 177.052 383.225C177.257 382.683 177.864 382.411 178.405 382.616L252.666 410.776C259.964 413.543 267.924 412.707 274.502 408.482C280.969 404.331 284.966 397.585 285.473 389.974C285.5 389.566 285.523 389.152 285.542 388.732C285.568 388.153 286.058 387.705 286.637 387.731C287.216 387.757 287.665 388.248 287.638 388.826C287.619 389.262 287.595 389.691 287.566 390.114C287.143 396.47 284.481 402.274 280.085 406.669Z" fill="#BDD0FB"/>
<path d="M167.796 380.175C167.513 380.458 167.08 380.565 166.682 380.415L158.397 377.273C157.855 377.068 157.583 376.462 157.788 375.92C157.993 375.379 158.6 375.106 159.141 375.311L167.425 378.452C167.967 378.657 168.239 379.263 168.034 379.805C167.98 379.949 167.897 380.073 167.796 380.175Z" fill="#BDD0FB"/>
<path d="M330.683 100.636C330.297 101.022 329.673 101.049 329.254 100.686C321.515 93.9726 313.623 91.0899 305.797 92.118C292.264 93.8959 283.36 106.84 283.272 106.971C282.945 107.452 282.296 107.577 281.816 107.252C281.336 106.928 281.21 106.275 281.535 105.795C281.917 105.23 291.066 91.9378 305.524 90.0374C313.971 88.9276 322.418 91.9774 330.629 99.1013C331.067 99.4811 331.114 100.144 330.734 100.581C330.717 100.601 330.7 100.618 330.683 100.636Z" fill="url(#paint5_linear_218_2022)"/>
<defs>
<linearGradient id="paint0_linear_218_2022" x1="225.446" y1="485.578" x2="203.837" y2="337.397" gradientUnits="userSpaceOnUse">
<stop stop-color="#5D0000"/>
<stop offset="1" stop-color="#910F0F"/>
</linearGradient>
<linearGradient id="paint1_linear_218_2022" x1="370.341" y1="-17.4253" x2="301.907" y2="148.773" gradientUnits="userSpaceOnUse">
<stop stop-color="#5E5E5E"/>
<stop offset="1" stop-color="#E7E7E7"/>
</linearGradient>
<linearGradient id="paint2_linear_218_2022" x1="348.608" y1="79.7895" x2="230.263" y2="212.543" gradientUnits="userSpaceOnUse">
<stop stop-color="#686868"/>
<stop offset="1" stop-color="#BBBBBB"/>
</linearGradient>
<linearGradient id="paint3_linear_218_2022" x1="155.391" y1="362.221" x2="34.2214" y2="250.312" gradientUnits="userSpaceOnUse">
<stop stop-color="#09005D"/>
<stop offset="1" stop-color="#1A0F91"/>
</linearGradient>
<linearGradient id="paint4_linear_218_2022" x1="117.852" y1="273.802" x2="126.353" y2="265.301" gradientUnits="userSpaceOnUse">
<stop stop-color="#DAE3FE"/>
<stop offset="1" stop-color="#E9EFFD"/>
</linearGradient>
<linearGradient id="paint5_linear_218_2022" x1="291.731" y1="117.194" x2="320.228" y2="88.6966" gradientUnits="userSpaceOnUse">
<stop stop-color="#DAE3FE"/>
<stop offset="1" stop-color="#E9EFFD"/>
</linearGradient>
</defs>
</svg>
