<svg width="1440" height="773" viewBox="0 0 1440 773" fill="none" xmlns="http://www.w3.org/2000/svg">
<path d="M1035.59 664.765C1035.59 664.765 1140.94 712.186 1165.98 718.925C1195.04 726.749 1214.31 683.975 1197.33 670.082C1180.35 656.189 1080.3 628.628 1080.3 628.628L1035.59 664.765Z" fill="url(#paint0_linear_366_922)"/>
<path d="M1019.09 569.991L1136.68 327.567L1303.69 498.356L1079.81 640.556L1019.09 569.991Z" fill="#F1F1F1"/>
<path d="M1308.59 499.135C1318.36 489.367 1287.42 442.588 1239.48 394.651C1191.54 346.714 1144.76 315.771 1134.99 325.538C1125.23 335.306 1156.17 382.085 1204.11 430.022C1252.04 477.959 1298.82 508.902 1308.59 499.135Z" fill="url(#paint1_linear_366_922)"/>
<path d="M1304 491.857C1300.77 491.829 1291.02 489.04 1271.82 475.808C1253.26 463.022 1231.34 444.283 1210.11 423.044C1188.87 401.806 1170.13 379.889 1157.34 361.332C1144.11 342.129 1141.32 332.376 1141.29 329.152C1144.52 329.179 1154.27 331.968 1173.47 345.2C1192.03 357.987 1213.95 376.725 1235.19 397.964C1256.42 419.203 1275.16 441.119 1287.95 459.677C1301.18 478.879 1303.97 488.633 1304 491.857Z" fill="white"/>
<mask id="mask0_366_922" style="mask-type:luminance" maskUnits="userSpaceOnUse" x="1141" y="329" width="163" height="163">
<path d="M1304 491.857C1300.77 491.83 1291.02 489.041 1271.82 475.809C1253.26 463.022 1231.34 444.283 1210.1 423.045C1188.87 401.806 1170.13 379.89 1157.34 361.332C1144.11 342.13 1141.32 332.376 1141.29 329.152C1144.52 329.179 1154.27 331.969 1173.47 345.2C1192.03 357.987 1235.12 355.548 1256.36 376.786C1277.6 398.025 1275.16 441.12 1287.95 459.677C1301.18 478.88 1303.97 488.633 1304 491.857Z" fill="white"/>
</mask>
<g mask="url(#mask0_366_922)">
<path d="M1244.67 387.19C1259.41 401.938 1263.42 421.839 1247.7 437.563C1231.98 453.288 1207.27 454.079 1192.52 439.331C1177.78 424.583 1178.57 399.88 1194.29 384.156C1210.02 368.432 1229.92 372.442 1244.67 387.19Z" fill="url(#paint2_linear_366_922)"/>
</g>
<path d="M986.422 595.393C993.907 585.942 1005.7 573.445 1021.83 563.322C1040.1 590.244 1064.31 613.142 1093.7 632.526L1056.66 669.558C1050.76 675.462 1041.44 676.208 1034.68 671.297C1021.15 661.453 999.246 644.062 985.872 625.876C979.16 616.749 979.389 604.275 986.422 595.393Z" fill="url(#paint3_linear_366_922)"/>
<path d="M1025.95 590.475L997.1 619.326C996.12 620.306 994.743 620.656 993.414 620.264C992.087 619.872 991.12 618.829 990.83 617.475C990.709 616.908 991.072 616.352 991.636 616.229C992.203 616.108 992.761 616.469 992.882 617.036C993.009 617.626 993.43 618.08 994.009 618.252C994.588 618.423 995.189 618.269 995.616 617.843L1024.47 588.991C1025.1 588.358 1025.1 587.329 1024.47 586.696L1022.41 584.643C1021.78 584.01 1020.75 584.01 1020.12 584.643L991.054 613.709C990.645 614.119 989.98 614.119 989.57 613.709C989.161 613.299 989.161 612.635 989.57 612.225L1018.64 583.159C1020.09 581.708 1022.45 581.709 1023.9 583.159L1025.95 585.212C1027.4 586.663 1027.4 589.024 1025.95 590.475Z" fill="#BDD0FB"/>
<path d="M1036.16 605.825L1007.3 634.677C1006.33 635.656 1004.95 636.007 1003.62 635.615C1002.29 635.222 1001.33 634.179 1001.04 632.825C1000.91 632.259 1001.28 631.703 1001.84 631.579C1002.41 631.458 1002.97 631.819 1003.09 632.386C1003.21 632.976 1003.63 633.431 1004.21 633.602C1004.79 633.773 1005.39 633.62 1005.82 633.193L1034.67 604.341C1035.31 603.708 1035.31 602.679 1034.67 602.047L1032.62 599.994C1031.99 599.361 1030.96 599.361 1030.33 599.994L1001.26 629.06C1000.85 629.469 1000.19 629.469 999.776 629.06C999.366 628.65 999.366 627.986 999.776 627.576L1028.84 598.51C1030.29 597.059 1032.65 597.059 1034.1 598.51L1036.16 600.563C1037.61 602.013 1037.61 604.374 1036.16 605.825Z" fill="#BDD0FB"/>
<path d="M1040.67 539.263C1040.36 539.577 1039.86 539.667 1039.45 539.452C1038.93 539.186 1038.73 538.553 1039 538.038L1131.95 358.315C1132.22 357.8 1132.85 357.599 1133.36 357.865C1133.88 358.131 1134.08 358.764 1133.81 359.279L1040.86 539.003C1040.81 539.101 1040.74 539.188 1040.67 539.263Z" fill="#E9EFFD"/>
<path d="M1029.77 565.236C1029.48 565.529 1029.03 565.632 1028.62 565.462C1028.09 565.238 1027.84 564.623 1028.06 564.088L1032.21 554.203C1032.43 553.668 1033.05 553.418 1033.58 553.642C1034.12 553.866 1034.37 554.481 1034.14 555.016L1030 564.901C1029.94 565.03 1029.86 565.143 1029.77 565.236Z" fill="url(#paint4_linear_366_922)"/>
<path d="M1053.69 618.217L1024.84 647.069C1023.86 648.048 1022.49 648.399 1021.16 648.006C1019.83 647.614 1018.86 646.571 1018.57 645.217C1018.45 644.65 1018.81 644.094 1019.38 643.971C1019.95 643.85 1020.5 644.21 1020.62 644.777C1020.75 645.368 1021.17 645.823 1021.75 645.994C1022.33 646.165 1022.93 646.012 1023.36 645.585L1052.21 616.733C1052.84 616.1 1052.84 615.071 1052.21 614.438L1050.16 612.385C1049.53 611.753 1048.5 611.753 1047.86 612.385L1018.8 641.451C1018.39 641.861 1017.72 641.861 1017.31 641.451C1016.9 641.042 1016.9 640.377 1017.31 639.967L1046.38 610.902C1047.83 609.451 1050.19 609.451 1051.64 610.901L1053.69 612.954C1055.15 614.406 1055.15 616.766 1053.69 618.217Z" fill="#BDD0FB"/>
<path d="M1073.01 632.126L1044.15 660.978C1043.18 661.957 1041.8 662.308 1040.47 661.915C1039.14 661.523 1038.17 660.48 1037.88 659.126C1037.76 658.559 1038.13 658.003 1038.69 657.88C1039.26 657.759 1039.81 658.12 1039.94 658.686C1040.06 659.277 1040.48 659.732 1041.06 659.903C1041.64 660.074 1042.24 659.921 1042.67 659.494L1071.52 630.642C1072.16 630.01 1072.16 628.98 1071.52 628.348L1069.47 626.294C1068.84 625.662 1067.81 625.662 1067.17 626.295L1038.11 655.36C1037.7 655.77 1037.03 655.77 1036.63 655.36C1036.22 654.951 1036.22 654.287 1036.63 653.877L1065.69 624.811C1067.14 623.36 1069.5 623.36 1070.95 624.811L1073.01 626.864C1074.46 628.315 1074.46 630.675 1073.01 632.126Z" fill="#BDD0FB"/>
<path d="M1189.09 696.669C1187.76 697.999 1186.27 699.199 1184.64 700.247C1177.49 704.835 1168.85 705.743 1160.92 702.737L1086.66 674.578C1086.12 674.373 1085.85 673.767 1086.05 673.225C1086.26 672.683 1086.86 672.411 1087.41 672.616L1161.67 700.776C1168.96 703.543 1176.92 702.707 1183.5 698.482C1189.97 694.331 1193.97 687.585 1194.47 679.974C1194.5 679.566 1194.52 679.152 1194.54 678.732C1194.57 678.153 1195.06 677.705 1195.64 677.731C1196.22 677.757 1196.66 678.248 1196.64 678.826C1196.62 679.262 1196.59 679.691 1196.57 680.114C1196.14 686.47 1193.48 692.274 1189.09 696.669Z" fill="#BDD0FB"/>
<path d="M1076.8 670.175C1076.51 670.458 1076.08 670.565 1075.68 670.415L1067.4 667.273C1066.86 667.068 1066.58 666.462 1066.79 665.92C1066.99 665.379 1067.6 665.106 1068.14 665.311L1076.42 668.452C1076.97 668.657 1077.24 669.263 1077.03 669.805C1076.98 669.949 1076.9 670.073 1076.8 670.175Z" fill="#BDD0FB"/>
<path d="M1239.68 390.636C1239.3 391.022 1238.67 391.049 1238.25 390.686C1230.52 383.973 1222.62 381.09 1214.8 382.118C1201.26 383.896 1192.36 396.84 1192.27 396.971C1191.94 397.452 1191.3 397.577 1190.82 397.252C1190.34 396.928 1190.21 396.275 1190.54 395.795C1190.92 395.23 1200.07 381.938 1214.52 380.037C1222.97 378.928 1231.42 381.977 1239.63 389.101C1240.07 389.481 1240.11 390.144 1239.73 390.581C1239.72 390.601 1239.7 390.618 1239.68 390.636Z" fill="url(#paint5_linear_366_922)"/>
<path d="M488.102 274.28L489.11 272.991C496.369 278.842 503.317 284.995 509.762 291.279L508.639 292.466C502.233 286.217 495.323 280.099 488.102 274.28Z" fill="#F1F1F1"/>
<path d="M482.097 267.331L474.657 261.338L473.65 262.627L481.09 268.621L482.097 267.331Z" fill="#F1F1F1"/>
<path d="M403.141 396.425C467.123 436.842 530.145 442.348 550.548 412.917C570.951 383.487 544.609 325.071 485.585 277.503L316.792 141.478L220.176 280.844L403.141 396.425Z" fill="#F1F1F1"/>
<path opacity="0.1" d="M414.172 380.503L233.107 262.193L260.337 247.712L425.508 365.23C472.224 398.455 514.916 417.065 538.687 417.147C540.831 417.154 541.362 420.259 539.337 420.975C515.656 429.352 466.715 414.846 414.172 380.503Z" fill="white"/>
<path d="M220.144 280.849C246.446 299.665 289.399 283.721 316.081 245.236C342.763 206.752 343.071 160.301 316.768 141.486C290.466 122.67 247.513 138.615 220.831 177.099C194.149 215.583 193.841 262.034 220.144 280.849Z" fill="#F1F1F1"/>
<path opacity="0.5" d="M220.144 280.849C246.446 299.665 289.399 283.721 316.081 245.236C342.763 206.752 343.071 160.301 316.768 141.486C290.466 122.67 247.513 138.615 220.831 177.099C194.149 215.583 193.841 262.034 220.144 280.849Z" fill="white"/>
<path opacity="0.1" d="M345.979 266.381C367.186 235.792 373.237 201.106 363.326 178.973L320.509 144.459C343.005 164.879 341.467 208.655 316.114 245.227C290.75 281.813 250.693 298.034 224.18 283.379L270.032 312.352C294.01 314.821 324.549 297.292 345.979 266.381Z" fill="#A7A7A7"/>
<path opacity="0.2" d="M484.012 315.352C470.797 306.87 446.052 300.523 428.604 325.689C411.157 350.856 425.378 372.382 437.693 382.162L484.012 315.352Z" fill="#A7A7A7"/>
<path d="M453.032 388.114C429.412 385.221 412.179 357.5 432.366 328.381C452.553 299.261 484.055 306.4 494.697 328.014C501.254 341.331 498.45 358.289 490.405 369.895C482.358 381.499 467.586 389.896 453.032 388.114Z" fill="white"/>
<path d="M437.896 332.336C445.753 321.004 455.993 315.215 466.734 316.034C476.026 316.742 484.423 322.511 488.646 331.088C493.631 341.213 492.078 355.543 484.872 365.939C477.666 376.334 464.905 382.65 453.842 381.293C444.469 380.146 436.292 374.059 432.503 365.411C428.124 355.414 430.04 343.669 437.896 332.336Z" fill="#F1F1F1"/>
<path opacity="0.3" d="M437.896 332.336C445.753 321.004 455.993 315.215 466.734 316.034C476.026 316.742 484.423 322.511 488.646 331.088C493.631 341.213 492.078 355.543 484.872 365.939C477.666 376.334 464.905 382.65 453.842 381.293C444.469 380.146 436.292 374.059 432.503 365.411C428.124 355.414 430.04 343.669 437.896 332.336Z" fill="#A7A7A7"/>
<path d="M437.896 332.335C445.752 321.002 455.708 315.009 465.928 315.455C474.772 315.842 482.599 321.203 486.355 329.448C490.789 339.179 488.851 353.232 481.645 363.629C474.439 374.024 462.062 380.615 451.55 379.653C442.645 378.838 435.037 373.161 431.697 364.833C427.838 355.208 430.039 343.667 437.896 332.335Z" fill="#F1F1F1"/>
<path opacity="0.2" d="M437.896 332.335C445.752 321.002 455.708 315.009 465.928 315.455C474.772 315.842 482.599 321.203 486.355 329.448C490.789 339.179 488.851 353.232 481.645 363.629C474.439 374.024 462.062 380.615 451.55 379.653C442.645 378.838 435.037 373.161 431.697 364.833C427.838 355.208 430.039 343.667 437.896 332.335Z" fill="white"/>
<path opacity="0.3" d="M474.396 371.492L451.662 319.136C456.2 316.5 461.022 315.243 465.925 315.451C468.335 315.557 470.659 316.022 472.838 316.846L487.509 350.639C486.362 355.217 484.383 359.685 481.645 363.63C479.592 366.594 477.132 369.248 474.396 371.492Z" fill="white"/>
<path opacity="0.3" d="M459.733 379.009L438.889 330.967C441.134 327.909 443.526 325.292 446.068 323.117L468.774 375.391C465.844 377.056 462.779 378.287 459.733 379.009Z" fill="white"/>
<path opacity="0.1" d="M500.521 431.398C513.15 429.802 527.764 419.937 538.571 404.349C549.368 388.773 553.586 371.473 550.821 358.844C559.444 380.328 559.785 399.585 550.546 412.915C541.305 426.242 523.339 432.404 500.521 431.398Z" fill="#A7A7A7"/>
<path opacity="0.5" d="M271.672 245.21C279.866 251.072 293.096 246.324 301.22 234.606C309.345 222.887 309.289 208.636 301.095 202.774C292.9 196.912 279.671 201.66 271.547 213.379C263.422 225.097 263.478 239.349 271.672 245.21Z" fill="#F1F1F1"/>
<path opacity="0.5" d="M279.421 189.846C271.227 183.985 271.17 169.733 279.294 158.014C287.418 146.295 300.648 141.546 308.841 147.407C317.035 153.269 317.091 167.52 308.967 179.239C300.842 190.958 287.614 195.708 279.421 189.846Z" fill="#F1F1F1"/>
<path opacity="0.5" d="M222.994 271.24C214.8 265.378 214.744 251.127 222.867 239.408C230.991 227.688 244.221 222.939 252.414 228.801C260.608 234.662 260.665 248.913 252.541 260.633C244.417 272.352 231.189 277.099 222.994 271.24Z" fill="#F1F1F1"/>
<path opacity="0.5" d="M230.713 215.883C222.519 210.022 222.462 195.771 230.586 184.052C238.71 172.332 251.94 167.583 260.133 173.445C268.327 179.306 268.383 193.557 260.259 205.277C252.136 216.996 238.908 221.745 230.713 215.883Z" fill="#F1F1F1"/>
<path opacity="0.5" d="M271.706 245.205C270.839 244.586 270.05 243.849 269.365 243.058C277.54 246.306 288.863 241.39 296.117 230.926C303.373 220.461 304.113 207.975 298.348 201.252C299.311 201.641 300.26 202.145 301.126 202.766C309.31 208.62 309.373 222.883 301.253 234.598C293.131 246.312 279.892 251.059 271.706 245.205Z" fill="#F1F1F1"/>
<path opacity="0.5" d="M279.419 189.839C278.551 189.217 277.778 188.494 277.079 187.692C285.267 190.951 296.581 186.05 303.846 175.569C311.101 165.104 311.841 152.618 306.062 145.884C307.039 146.282 307.972 146.779 308.84 147.398C317.039 153.263 317.086 167.514 308.964 179.23C300.833 190.961 287.618 195.702 279.419 189.839Z" fill="#F1F1F1"/>
<path opacity="0.5" d="M222.986 271.241C222.118 270.62 221.345 269.894 220.646 269.094C228.834 272.353 240.157 267.439 247.413 256.971C254.678 246.491 255.408 234.02 249.629 227.286C250.607 227.686 251.539 228.181 252.407 228.802C260.606 234.667 260.664 248.903 252.531 260.632C244.411 272.348 231.185 277.104 222.986 271.241Z" fill="#F1F1F1"/>
<path opacity="0.5" d="M230.713 215.884C229.845 215.263 229.061 214.552 228.373 213.737C236.546 216.985 247.886 212.08 255.14 201.614C262.395 191.149 263.121 178.652 257.355 171.929C258.343 172.312 259.266 172.822 260.134 173.443C268.333 179.308 268.38 193.559 260.258 205.275C252.138 216.991 238.912 221.747 230.713 215.884Z" fill="#F1F1F1"/>
<path d="M423.266 233.781C423.266 233.781 391.188 208.683 363.566 186.809C355.657 180.546 351.884 170.486 353.117 160.375C355.446 141.262 342.097 110.072 342.097 110.072C342.097 110.072 437.336 169.024 423.266 233.781Z" fill="#F1F1F1"/>
<path opacity="0.3" d="M423.266 233.781C423.266 233.781 391.188 208.683 363.566 186.809C355.657 180.546 351.884 170.486 353.117 160.375C355.446 141.262 342.097 110.072 342.097 110.072C342.097 110.072 437.336 169.024 423.266 233.781Z" fill="#A7A7A7"/>
<path d="M341.613 351.56C341.613 351.56 307.541 329.342 277.956 310.297C269.484 304.845 258.89 304.625 249.933 309.211C233 317.879 199.593 315.625 199.593 315.625C199.593 315.625 286.332 386.841 341.613 351.56Z" fill="#F1F1F1"/>
<path opacity="0.3" d="M341.613 351.56C341.613 351.56 307.541 329.342 277.956 310.297C269.484 304.845 258.89 304.625 249.933 309.211C233 317.879 199.593 315.625 199.593 315.625C199.593 315.625 286.332 386.841 341.613 351.56Z" fill="#A7A7A7"/>
<path d="M291.668 168.626C305.919 164.455 287.961 141.912 266.318 119.691C244.499 97.2907 195.073 86.5276 169.325 65.0533C143.398 43.4284 120.095 -17.9548 81.2811 6.09582C24.026 41.5756 -30.9143 -39.9685 -30.9143 56.5949C-30.9143 153.158 -30.9143 218.45 -30.9143 254.661C-30.9143 290.872 12.6827 330.15 42.3907 273.75C72.0987 217.352 2.91614 132.858 68.8573 110.069C101.578 98.7603 86.5627 139.767 140.157 120.789C193.749 101.811 208.329 103.039 232.215 112.729C290.309 136.301 270.028 174.96 291.668 168.626Z" fill="#F1F1F1"/>
<path opacity="0.6" d="M291.668 168.626C305.919 164.455 287.961 141.912 266.318 119.691C244.499 97.2907 195.073 86.5276 169.325 65.0533C143.398 43.4284 120.095 -17.9548 81.2811 6.09582C24.026 41.5756 -30.9143 -39.9685 -30.9143 56.5949C-30.9143 153.158 -30.9143 218.45 -30.9143 254.661C-30.9143 290.872 12.6827 330.15 42.3907 273.75C72.0987 217.352 2.91614 132.858 68.8573 110.069C101.578 98.7603 86.5627 139.767 140.157 120.789C193.749 101.811 208.329 103.039 232.215 112.729C290.309 136.301 270.028 174.96 291.668 168.626Z" fill="white"/>
<path d="M245.582 200.201C259.833 196.031 241.875 173.487 220.232 151.267C198.414 128.866 148.987 118.103 123.239 96.6286C97.3124 75.0037 74.0086 13.6205 35.1952 37.6711C-22.0599 73.1509 -77.0002 -8.39322 -77.0002 88.1702C-77.0002 184.734 -77.0002 250.025 -77.0002 286.236C-77.0002 322.447 -33.4033 361.725 -3.69522 305.326C26.0128 248.928 -43.1698 164.433 22.7713 141.644C55.4919 130.336 40.4767 171.342 94.071 152.364C147.663 133.386 162.243 134.614 186.129 144.304C244.223 167.876 223.942 206.535 245.582 200.201Z" fill="#F1F1F1"/>
<path opacity="0.6" d="M245.582 200.201C259.833 196.031 241.875 173.487 220.232 151.267C198.414 128.866 148.987 118.103 123.239 96.6286C97.3124 75.0037 74.0086 13.6205 35.1952 37.6711C-22.0599 73.1509 -77.0002 -8.39322 -77.0002 88.1702C-77.0002 184.734 -77.0002 250.025 -77.0002 286.236C-77.0002 322.447 -33.4033 361.725 -3.69522 305.326C26.0128 248.928 -43.1698 164.433 22.7713 141.644C55.4919 130.336 40.4767 171.342 94.071 152.364C147.663 133.386 162.243 134.614 186.129 144.304C244.223 167.876 223.942 206.535 245.582 200.201Z" fill="white"/>
<path d="M282.582 228.643C296.833 224.472 278.875 201.928 257.232 179.708C235.414 157.307 185.987 146.544 160.239 125.07C134.312 103.445 111.009 42.0618 72.1952 66.1124C14.9401 101.592 -40.0002 20.0481 -40.0002 116.612C-40.0002 213.175 -40.0002 278.466 -40.0002 314.677C-40.0002 350.888 3.59674 390.166 33.3048 333.767C63.0128 277.369 -6.16979 192.875 59.7713 170.085C92.4919 158.777 77.4767 199.783 131.071 180.805C184.663 161.828 199.243 163.055 223.129 172.745C281.223 196.318 260.942 234.977 282.582 228.643Z" fill="#F1F1F1"/>
<path opacity="0.6" d="M282.582 228.643C296.833 224.472 278.875 201.928 257.232 179.708C235.414 157.307 185.987 146.544 160.239 125.07C134.312 103.445 111.009 42.0618 72.1952 66.1124C14.9401 101.592 -40.0002 20.0481 -40.0002 116.612C-40.0002 213.175 -40.0002 278.466 -40.0002 314.677C-40.0002 350.888 3.59674 390.166 33.3048 333.767C63.0128 277.369 -6.16979 192.875 59.7713 170.085C92.4919 158.777 77.4767 199.783 131.071 180.805C184.663 161.828 199.243 163.055 223.129 172.745C281.223 196.318 260.942 234.977 282.582 228.643Z" fill="white"/>
<path d="M237.582 255.053C251.833 250.882 233.875 228.338 212.232 206.118C190.414 183.717 140.987 172.954 115.239 151.48C89.3124 129.855 66.0086 68.4717 27.1952 92.5223C-30.0599 128.002 -85.0002 46.458 -85.0002 143.021C-85.0002 239.585 -85.0002 304.876 -85.0002 341.087C-85.0002 377.298 -41.4033 416.576 -11.6952 360.177C18.0128 303.779 -51.1698 219.284 14.7713 196.495C47.4919 185.187 32.4767 226.193 86.071 207.215C139.663 188.238 154.243 189.465 178.129 199.155C236.223 222.728 215.942 261.387 237.582 255.053Z" fill="#F1F1F1"/>
<path opacity="0.6" d="M237.582 255.053C251.833 250.882 233.875 228.338 212.232 206.118C190.414 183.717 140.987 172.954 115.239 151.48C89.3124 129.855 66.0086 68.4717 27.1952 92.5223C-30.0599 128.002 -85.0002 46.458 -85.0002 143.021C-85.0002 239.585 -85.0002 304.876 -85.0002 341.087C-85.0002 377.298 -41.4033 416.576 -11.6952 360.177C18.0128 303.779 -51.1698 219.284 14.7713 196.495C47.4919 185.187 32.4767 226.193 86.071 207.215C139.663 188.238 154.243 189.465 178.129 199.155C236.223 222.728 215.942 261.387 237.582 255.053Z" fill="white"/>
<g clip-path="url(#clip0_366_922)">
<ellipse cx="720.5" cy="839.5" rx="771.5" ry="344.5" fill="#F4F4F4"/>
<ellipse cx="877.116" cy="569.58" rx="65" ry="27" transform="rotate(6.3704 877.116 569.58)" fill="#D9D9D9"/>
<ellipse cx="879.959" cy="578.258" rx="44.2053" ry="18.4672" transform="rotate(6.3704 879.959 578.258)" fill="#B7B7B7"/>
<ellipse cx="541.315" cy="637.933" rx="91.5366" ry="42.828" transform="rotate(-5.66197 541.315 637.933)" fill="#D9D9D9"/>
<ellipse cx="537.191" cy="651.008" rx="63.9663" ry="29.9284" transform="rotate(-5.66197 537.191 651.008)" fill="#B7B7B7"/>
<ellipse cx="304.163" cy="606.913" rx="65" ry="27" transform="rotate(-8.12205 304.163 606.913)" fill="#D9D9D9"/>
<ellipse cx="300.087" cy="616.281" rx="43.9484" ry="18.2555" transform="rotate(-8.12205 300.087 616.281)" fill="#B7B7B7"/>
<ellipse cx="1285.79" cy="678.883" rx="65" ry="27" transform="rotate(30 1285.79 678.883)" fill="#D9D9D9"/>
<ellipse cx="1280.43" cy="686.315" rx="42.9556" ry="17.8431" transform="rotate(30 1280.43 686.315)" fill="#B7B7B7"/>
<ellipse cx="796.361" cy="584.305" rx="20.8976" ry="8.68053" transform="rotate(9.36717 796.361 584.305)" fill="#D9D9D9"/>
<ellipse cx="1190.36" cy="636.398" rx="20.8976" ry="8.68053" transform="rotate(13.746 1190.36 636.398)" fill="#D9D9D9"/>
<ellipse cx="613.642" cy="539.101" rx="15.357" ry="6.37906" transform="rotate(-2.7197 613.642 539.101)" fill="#D9D9D9"/>
<ellipse cx="978.361" cy="574.398" rx="20.8976" ry="8.68053" transform="rotate(13.746 978.361 574.398)" fill="#D9D9D9"/>
<ellipse cx="210.361" cy="624.397" rx="20.8976" ry="8.68053" transform="rotate(-19.512 210.361 624.397)" fill="#D9D9D9"/>
</g>
<defs>
<linearGradient id="paint0_linear_366_922" x1="1134.45" y1="775.578" x2="1112.84" y2="627.397" gradientUnits="userSpaceOnUse">
<stop stop-color="#5D0000"/>
<stop offset="1" stop-color="#910F0F"/>
</linearGradient>
<linearGradient id="paint1_linear_366_922" x1="1279.34" y1="272.575" x2="1210.91" y2="438.773" gradientUnits="userSpaceOnUse">
<stop stop-color="#5E5E5E"/>
<stop offset="1" stop-color="#E7E7E7"/>
</linearGradient>
<linearGradient id="paint2_linear_366_922" x1="1257.61" y1="369.789" x2="1139.26" y2="502.543" gradientUnits="userSpaceOnUse">
<stop stop-color="#686868"/>
<stop offset="1" stop-color="#BBBBBB"/>
</linearGradient>
<linearGradient id="paint3_linear_366_922" x1="1064.39" y1="652.221" x2="943.221" y2="540.312" gradientUnits="userSpaceOnUse">
<stop stop-color="#09005D"/>
<stop offset="1" stop-color="#1A0F91"/>
</linearGradient>
<linearGradient id="paint4_linear_366_922" x1="1026.85" y1="563.802" x2="1035.35" y2="555.301" gradientUnits="userSpaceOnUse">
<stop stop-color="#DAE3FE"/>
<stop offset="1" stop-color="#E9EFFD"/>
</linearGradient>
<linearGradient id="paint5_linear_366_922" x1="1200.73" y1="407.194" x2="1229.23" y2="378.697" gradientUnits="userSpaceOnUse">
<stop stop-color="#DAE3FE"/>
<stop offset="1" stop-color="#E9EFFD"/>
</linearGradient>
<clipPath id="clip0_366_922">
<rect width="1543" height="228" fill="white" transform="translate(-51 495)"/>
</clipPath>
</defs>
</svg>
