<svg width="1441" height="221" viewBox="0 0 1441 221" fill="none" xmlns="http://www.w3.org/2000/svg">
<path fill-rule="evenodd" clip-rule="evenodd" d="M1440.89 221H0C111.195 91.7435 391.826 0 720.444 0C1049.06 0 1329.69 91.7435 1440.89 221Z" fill="#F4F4F4"/>
<ellipse cx="821.382" cy="57.3449" rx="65" ry="27" transform="rotate(3.88769 821.382 57.3449)" fill="#D9D9D9"/>
<ellipse cx="824.598" cy="65.8919" rx="44.2053" ry="18.4672" transform="rotate(3.88769 824.598 65.8919)" fill="#B7B7B7"/>
<ellipse cx="488.858" cy="140.18" rx="91.5366" ry="42.828" transform="rotate(-8.14469 488.858 140.18)" fill="#D9D9D9"/>
<ellipse cx="485.302" cy="153.421" rx="63.9663" ry="29.9284" transform="rotate(-8.14469 485.302 153.421)" fill="#B7B7B7"/>
<ellipse cx="250.583" cy="119.462" rx="65" ry="27" transform="rotate(-10.6048 250.583 119.462)" fill="#D9D9D9"/>
<ellipse cx="246.918" cy="128.998" rx="43.9484" ry="18.2555" transform="rotate(-10.6048 246.918 128.998)" fill="#B7B7B7"/>
<ellipse cx="1234.41" cy="148.842" rx="65" ry="27" transform="rotate(27.5173 1234.41 148.842)" fill="#D9D9D9"/>
<ellipse cx="1229.37" cy="156.5" rx="42.9556" ry="17.8431" transform="rotate(27.5173 1229.37 156.5)" fill="#B7B7B7"/>
<ellipse cx="741.34" cy="75.554" rx="20.8976" ry="8.68053" transform="rotate(6.88446 741.34 75.554)" fill="#D9D9D9"/>
<ellipse cx="1137.23" cy="110.531" rx="20.8976" ry="8.68053" transform="rotate(11.2632 1137.23 110.531)" fill="#D9D9D9"/>
<ellipse cx="556.835" cy="38.3073" rx="15.357" ry="6.37906" transform="rotate(-5.20241 556.835 38.3073)" fill="#D9D9D9"/>
<ellipse cx="922.741" cy="57.7722" rx="20.8976" ry="8.68053" transform="rotate(11.2632 922.741 57.7722)" fill="#D9D9D9"/>
<ellipse cx="157.628" cy="140.994" rx="20.8976" ry="8.68053" transform="rotate(-21.9947 157.628 140.994)" fill="#D9D9D9"/>
</svg>
