<svg width="558" height="432" viewBox="0 0 558 432" fill="none" xmlns="http://www.w3.org/2000/svg">
<path d="M488.102 274.28L489.11 272.991C496.369 278.842 503.317 284.995 509.762 291.279L508.639 292.466C502.233 286.217 495.323 280.099 488.102 274.28Z" fill="#F1F1F1"/>
<path d="M482.097 267.331L474.657 261.338L473.65 262.627L481.09 268.621L482.097 267.331Z" fill="#F1F1F1"/>
<path d="M403.141 396.425C467.123 436.842 530.145 442.348 550.548 412.917C570.951 383.487 544.609 325.071 485.585 277.503L316.792 141.478L220.176 280.844L403.141 396.425Z" fill="#F1F1F1"/>
<path opacity="0.1" d="M414.172 380.503L233.107 262.193L260.337 247.712L425.508 365.23C472.224 398.455 514.916 417.065 538.687 417.147C540.831 417.154 541.362 420.259 539.337 420.975C515.656 429.352 466.715 414.846 414.172 380.503Z" fill="white"/>
<path d="M220.144 280.849C246.446 299.665 289.399 283.721 316.081 245.236C342.763 206.752 343.071 160.301 316.768 141.486C290.466 122.67 247.513 138.615 220.831 177.099C194.149 215.583 193.841 262.034 220.144 280.849Z" fill="#F1F1F1"/>
<path opacity="0.5" d="M220.144 280.849C246.446 299.665 289.399 283.721 316.081 245.236C342.763 206.752 343.071 160.301 316.768 141.486C290.466 122.67 247.513 138.615 220.831 177.099C194.149 215.583 193.841 262.034 220.144 280.849Z" fill="white"/>
<path opacity="0.1" d="M345.979 266.381C367.186 235.792 373.237 201.106 363.326 178.973L320.509 144.459C343.005 164.879 341.467 208.655 316.114 245.227C290.75 281.813 250.693 298.034 224.18 283.379L270.032 312.352C294.01 314.821 324.549 297.292 345.979 266.381Z" fill="#A7A7A7"/>
<path opacity="0.2" d="M484.012 315.352C470.797 306.87 446.052 300.523 428.604 325.689C411.157 350.856 425.378 372.382 437.693 382.162L484.012 315.352Z" fill="#A7A7A7"/>
<path d="M453.032 388.114C429.412 385.221 412.179 357.5 432.366 328.381C452.553 299.261 484.055 306.4 494.697 328.014C501.254 341.331 498.45 358.289 490.405 369.895C482.358 381.499 467.586 389.896 453.032 388.114Z" fill="white"/>
<path d="M437.896 332.336C445.753 321.004 455.993 315.215 466.734 316.034C476.026 316.742 484.423 322.511 488.646 331.088C493.631 341.213 492.078 355.543 484.872 365.939C477.666 376.334 464.905 382.65 453.842 381.293C444.469 380.146 436.292 374.059 432.503 365.411C428.124 355.414 430.04 343.669 437.896 332.336Z" fill="#F1F1F1"/>
<path opacity="0.3" d="M437.896 332.336C445.753 321.004 455.993 315.215 466.734 316.034C476.026 316.742 484.423 322.511 488.646 331.088C493.631 341.213 492.078 355.543 484.872 365.939C477.666 376.334 464.905 382.65 453.842 381.293C444.469 380.146 436.292 374.059 432.503 365.411C428.124 355.414 430.04 343.669 437.896 332.336Z" fill="#A7A7A7"/>
<path d="M437.896 332.335C445.752 321.002 455.708 315.009 465.928 315.455C474.772 315.842 482.599 321.203 486.355 329.448C490.789 339.179 488.851 353.232 481.645 363.629C474.439 374.024 462.062 380.615 451.55 379.653C442.645 378.838 435.037 373.161 431.697 364.833C427.838 355.208 430.039 343.667 437.896 332.335Z" fill="#F1F1F1"/>
<path opacity="0.2" d="M437.896 332.335C445.752 321.002 455.708 315.009 465.928 315.455C474.772 315.842 482.599 321.203 486.355 329.448C490.789 339.179 488.851 353.232 481.645 363.629C474.439 374.024 462.062 380.615 451.55 379.653C442.645 378.838 435.037 373.161 431.697 364.833C427.838 355.208 430.039 343.667 437.896 332.335Z" fill="white"/>
<path opacity="0.3" d="M474.396 371.492L451.662 319.136C456.2 316.5 461.022 315.243 465.925 315.451C468.335 315.557 470.659 316.022 472.838 316.846L487.509 350.639C486.362 355.217 484.383 359.685 481.645 363.63C479.592 366.594 477.132 369.248 474.396 371.492Z" fill="white"/>
<path opacity="0.3" d="M459.733 379.009L438.889 330.967C441.134 327.909 443.526 325.292 446.068 323.117L468.774 375.391C465.844 377.056 462.779 378.287 459.733 379.009Z" fill="white"/>
<path opacity="0.1" d="M500.521 431.398C513.15 429.802 527.764 419.937 538.571 404.349C549.368 388.773 553.586 371.473 550.821 358.844C559.444 380.328 559.785 399.585 550.546 412.915C541.305 426.242 523.339 432.404 500.521 431.398Z" fill="#A7A7A7"/>
<path opacity="0.5" d="M271.672 245.21C279.866 251.072 293.096 246.324 301.22 234.606C309.345 222.887 309.289 208.636 301.095 202.774C292.9 196.912 279.671 201.66 271.547 213.379C263.422 225.097 263.478 239.349 271.672 245.21Z" fill="#F1F1F1"/>
<path opacity="0.5" d="M279.421 189.846C271.227 183.985 271.17 169.733 279.294 158.014C287.418 146.295 300.648 141.546 308.841 147.407C317.035 153.269 317.091 167.52 308.967 179.239C300.842 190.958 287.614 195.708 279.421 189.846Z" fill="#F1F1F1"/>
<path opacity="0.5" d="M222.994 271.24C214.8 265.378 214.744 251.127 222.867 239.408C230.991 227.688 244.221 222.939 252.414 228.801C260.608 234.662 260.665 248.913 252.541 260.633C244.417 272.352 231.189 277.099 222.994 271.24Z" fill="#F1F1F1"/>
<path opacity="0.5" d="M230.713 215.883C222.519 210.022 222.462 195.771 230.586 184.052C238.71 172.332 251.94 167.583 260.133 173.445C268.327 179.306 268.383 193.557 260.259 205.277C252.136 216.996 238.908 221.745 230.713 215.883Z" fill="#F1F1F1"/>
<path opacity="0.5" d="M271.706 245.205C270.839 244.586 270.05 243.849 269.365 243.058C277.54 246.306 288.863 241.39 296.117 230.926C303.373 220.461 304.113 207.975 298.348 201.252C299.311 201.641 300.26 202.145 301.126 202.766C309.31 208.62 309.373 222.883 301.253 234.598C293.131 246.312 279.892 251.059 271.706 245.205Z" fill="#F1F1F1"/>
<path opacity="0.5" d="M279.419 189.839C278.551 189.217 277.778 188.494 277.079 187.692C285.267 190.951 296.581 186.05 303.846 175.569C311.101 165.104 311.841 152.618 306.062 145.884C307.039 146.282 307.972 146.779 308.84 147.398C317.039 153.263 317.086 167.514 308.964 179.23C300.833 190.961 287.618 195.702 279.419 189.839Z" fill="#F1F1F1"/>
<path opacity="0.5" d="M222.986 271.241C222.118 270.62 221.345 269.894 220.646 269.094C228.834 272.353 240.157 267.439 247.413 256.971C254.678 246.491 255.408 234.02 249.629 227.286C250.607 227.686 251.539 228.181 252.407 228.802C260.606 234.667 260.664 248.903 252.531 260.632C244.411 272.348 231.185 277.104 222.986 271.241Z" fill="#F1F1F1"/>
<path opacity="0.5" d="M230.713 215.884C229.845 215.263 229.061 214.552 228.373 213.737C236.546 216.985 247.886 212.08 255.14 201.614C262.395 191.149 263.121 178.652 257.355 171.929C258.343 172.312 259.266 172.822 260.134 173.443C268.333 179.308 268.38 193.559 260.258 205.275C252.138 216.991 238.912 221.747 230.713 215.884Z" fill="#F1F1F1"/>
<path d="M423.266 233.781C423.266 233.781 391.188 208.683 363.566 186.809C355.657 180.546 351.884 170.486 353.117 160.375C355.446 141.262 342.097 110.072 342.097 110.072C342.097 110.072 437.336 169.024 423.266 233.781Z" fill="#F1F1F1"/>
<path opacity="0.3" d="M423.266 233.781C423.266 233.781 391.188 208.683 363.566 186.809C355.657 180.546 351.884 170.486 353.117 160.375C355.446 141.262 342.097 110.072 342.097 110.072C342.097 110.072 437.336 169.024 423.266 233.781Z" fill="#A7A7A7"/>
<path d="M341.613 351.56C341.613 351.56 307.541 329.342 277.956 310.297C269.484 304.845 258.89 304.625 249.933 309.211C233 317.879 199.593 315.625 199.593 315.625C199.593 315.625 286.332 386.841 341.613 351.56Z" fill="#F1F1F1"/>
<path opacity="0.3" d="M341.613 351.56C341.613 351.56 307.541 329.342 277.956 310.297C269.484 304.845 258.89 304.625 249.933 309.211C233 317.879 199.593 315.625 199.593 315.625C199.593 315.625 286.332 386.841 341.613 351.56Z" fill="#A7A7A7"/>
<path d="M291.668 168.626C305.919 164.455 287.961 141.912 266.318 119.691C244.499 97.2908 195.073 86.5276 169.325 65.0534C143.398 43.4284 120.095 -17.9548 81.2811 6.09588C24.026 41.5757 -30.9143 -39.9685 -30.9143 56.595C-30.9143 153.158 -30.9143 218.45 -30.9143 254.661C-30.9143 290.872 12.6827 330.15 42.3907 273.75C72.0987 217.352 2.91614 132.858 68.8573 110.069C101.578 98.7604 86.5627 139.767 140.157 120.789C193.749 101.811 208.329 103.039 232.215 112.729C290.309 136.301 270.028 174.96 291.668 168.626Z" fill="#F1F1F1"/>
<path opacity="0.6" d="M291.668 168.626C305.919 164.455 287.961 141.912 266.318 119.691C244.499 97.2908 195.073 86.5276 169.325 65.0534C143.398 43.4284 120.095 -17.9548 81.2811 6.09588C24.026 41.5757 -30.9143 -39.9685 -30.9143 56.595C-30.9143 153.158 -30.9143 218.45 -30.9143 254.661C-30.9143 290.872 12.6827 330.15 42.3907 273.75C72.0987 217.352 2.91614 132.858 68.8573 110.069C101.578 98.7604 86.5627 139.767 140.157 120.789C193.749 101.811 208.329 103.039 232.215 112.729C290.309 136.301 270.028 174.96 291.668 168.626Z" fill="white"/>
<path d="M245.582 200.201C259.833 196.031 241.875 173.487 220.232 151.267C198.414 128.866 148.987 118.103 123.239 96.6286C97.3124 75.0037 74.0086 13.6205 35.1952 37.6711C-22.0599 73.1509 -77.0002 -8.39322 -77.0002 88.1702C-77.0002 184.734 -77.0002 250.025 -77.0002 286.236C-77.0002 322.447 -33.4033 361.725 -3.69522 305.326C26.0128 248.928 -43.1698 164.433 22.7713 141.644C55.4919 130.336 40.4767 171.342 94.071 152.364C147.663 133.386 162.243 134.614 186.129 144.304C244.223 167.876 223.942 206.535 245.582 200.201Z" fill="#F1F1F1"/>
<path opacity="0.6" d="M245.582 200.201C259.833 196.031 241.875 173.487 220.232 151.267C198.414 128.866 148.987 118.103 123.239 96.6286C97.3124 75.0037 74.0086 13.6205 35.1952 37.6711C-22.0599 73.1509 -77.0002 -8.39322 -77.0002 88.1702C-77.0002 184.734 -77.0002 250.025 -77.0002 286.236C-77.0002 322.447 -33.4033 361.725 -3.69522 305.326C26.0128 248.928 -43.1698 164.433 22.7713 141.644C55.4919 130.336 40.4767 171.342 94.071 152.364C147.663 133.386 162.243 134.614 186.129 144.304C244.223 167.876 223.942 206.535 245.582 200.201Z" fill="white"/>
<path d="M282.582 228.643C296.833 224.472 278.875 201.928 257.232 179.708C235.414 157.307 185.987 146.544 160.239 125.07C134.312 103.445 111.009 42.0619 72.1952 66.1125C14.9401 101.592 -40.0002 20.0482 -40.0002 116.612C-40.0002 213.175 -40.0002 278.467 -40.0002 314.677C-40.0002 350.888 3.59674 390.167 33.3048 333.767C63.0128 277.369 -6.16979 192.875 59.7713 170.085C92.4919 158.777 77.4767 199.783 131.071 180.806C184.663 161.828 199.243 163.055 223.129 172.745C281.223 196.318 260.942 234.977 282.582 228.643Z" fill="#F1F1F1"/>
<path opacity="0.6" d="M282.582 228.643C296.833 224.472 278.875 201.928 257.232 179.708C235.414 157.307 185.987 146.544 160.239 125.07C134.312 103.445 111.009 42.0619 72.1952 66.1125C14.9401 101.592 -40.0002 20.0482 -40.0002 116.612C-40.0002 213.175 -40.0002 278.467 -40.0002 314.677C-40.0002 350.888 3.59674 390.167 33.3048 333.767C63.0128 277.369 -6.16979 192.875 59.7713 170.085C92.4919 158.777 77.4767 199.783 131.071 180.806C184.663 161.828 199.243 163.055 223.129 172.745C281.223 196.318 260.942 234.977 282.582 228.643Z" fill="white"/>
<path d="M237.582 255.053C251.833 250.882 233.875 228.338 212.232 206.118C190.414 183.717 140.987 172.954 115.239 151.48C89.3124 129.855 66.0086 68.4717 27.1952 92.5223C-30.0599 128.002 -85.0002 46.458 -85.0002 143.021C-85.0002 239.585 -85.0002 304.876 -85.0002 341.087C-85.0002 377.298 -41.4033 416.576 -11.6952 360.177C18.0128 303.779 -51.1698 219.284 14.7713 196.495C47.4919 185.187 32.4767 226.193 86.071 207.215C139.663 188.238 154.243 189.465 178.129 199.155C236.223 222.728 215.942 261.387 237.582 255.053Z" fill="#F1F1F1"/>
<path opacity="0.6" d="M237.582 255.053C251.833 250.882 233.875 228.338 212.232 206.118C190.414 183.717 140.987 172.954 115.239 151.48C89.3124 129.855 66.0086 68.4717 27.1952 92.5223C-30.0599 128.002 -85.0002 46.458 -85.0002 143.021C-85.0002 239.585 -85.0002 304.876 -85.0002 341.087C-85.0002 377.298 -41.4033 416.576 -11.6952 360.177C18.0128 303.779 -51.1698 219.284 14.7713 196.495C47.4919 185.187 32.4767 226.193 86.071 207.215C139.663 188.238 154.243 189.465 178.129 199.155C236.223 222.728 215.942 261.387 237.582 255.053Z" fill="white"/>
</svg>
