<svg width="576" height="260" viewBox="0 0 576 260" fill="none" xmlns="http://www.w3.org/2000/svg">
<g clip-path="url(#clip0_73_596)">
<path d="M520.753 104.712H503.344V164.923H520.753V104.712Z" fill="#F2F2F2"/>
<path d="M532.249 153.596L489.907 103.267L404.915 104.043L353.357 154.218L354.399 154.887H354.027V259.253H532.136V154.887L532.249 153.596Z" fill="#F2F2F2"/>
<path d="M489.952 103.374L437.056 165.337V259.253H532.136V153.549L489.952 103.374Z" fill="#E6E6E6"/>
<path d="M494.64 207.316H475.222V224.465H494.64V207.316Z" fill="#3F3D56"/>
<path d="M494.64 177.634H475.222V194.511H494.64V177.634Z" fill="#3F3D56"/>
<path d="M494.64 207.316H475.222V224.465H494.64V207.316Z" fill="white"/>
<path d="M494.64 177.634H475.222V194.511H494.64V177.634Z" fill="white"/>
<path d="M408.345 202.766H388.927V219.915H408.345V202.766Z" fill="white"/>
<path d="M408.345 173.084H388.927V189.961H408.345V173.084Z" fill="white"/>
<path d="M383.371 104.712H365.962V164.923H383.371V104.712Z" fill="#F2F2F2"/>
<path d="M394.868 153.596L352.526 103.267L267.534 104.043L215.976 154.218L217.017 154.887H216.645V259.253H394.754V154.887L394.868 153.596Z" fill="#F2F2F2"/>
<path d="M352.57 103.374L299.674 165.337V259.253H394.754V153.549L352.57 103.374Z" fill="#E6E6E6"/>
<path d="M357.258 207.316H337.84V224.465H357.258V207.316Z" fill="#3F3D56"/>
<path d="M357.258 177.634H337.84V194.511H357.258V177.634Z" fill="#3F3D56"/>
<path d="M357.258 207.316H337.84V224.465H357.258V207.316Z" fill="white"/>
<path d="M357.258 177.634H337.84V194.511H357.258V177.634Z" fill="white"/>
<path d="M270.963 202.766H251.545V219.915H270.963V202.766Z" fill="white"/>
<path d="M270.963 173.084H251.545V189.961H270.963V173.084Z" fill="white"/>
<path d="M242.7 52.749H219.438V133.205H242.7V52.749Z" fill="#F2F2F2"/>
<path d="M258.063 118.069L201.484 50.8179L87.914 51.8549L19.0205 118.902L20.4122 119.796H19.9152V259.253H257.911V119.796L258.063 118.069Z" fill="#F2F2F2"/>
<path d="M201.543 50.9609L130.86 133.759V259.253H257.911V118.008L201.543 50.9609Z" fill="#E6E6E6"/>
<path d="M207.806 189.853H181.859V212.768H207.806V189.853Z" fill="#3F3D56"/>
<path d="M207.806 150.19H181.859V172.742H207.806V150.19Z" fill="#3F3D56"/>
<path d="M207.806 189.853H181.859V212.768H207.806V189.853Z" fill="white"/>
<path d="M207.806 150.19H181.859V172.742H207.806V150.19Z" fill="white"/>
<path d="M92.4967 183.772H66.5498V206.687H92.4967V183.772Z" fill="white"/>
<path d="M92.4967 144.11H66.5498V166.661H92.4967V144.11Z" fill="white"/>
<path d="M556.426 258.738H0V259.891H556.426V258.738Z" fill="#3F3D56"/>
<path d="M87.6663 237.529C96.9431 237.529 104.463 222.198 104.463 203.286C104.463 184.373 96.9431 169.042 87.6663 169.042C78.3895 169.042 70.8691 184.373 70.8691 203.286C70.8691 222.198 78.3895 237.529 87.6663 237.529Z" fill="#3F3D56"/>
<path d="M89.217 259.337C82.4896 219.008 89.1492 178.825 89.2173 178.424L90.5259 178.645C90.4582 179.044 83.8367 219.016 90.5262 259.119L89.217 259.337Z" fill="#AD0300"/>
<path d="M102.454 195.922L87.2646 204.04L87.8907 205.209L103.08 197.092L102.454 195.922Z" fill="#AD0300"/>
<path d="M71.8608 199.988L71.2344 201.158L86.4217 209.28L87.0481 208.11L71.8608 199.988Z" fill="#AD0300"/>
<path d="M47.3073 217.451C65.4516 217.451 80.1605 187.464 80.1605 150.474C80.1605 113.484 65.4516 83.4976 47.3073 83.4976C29.163 83.4976 14.4541 113.484 14.4541 150.474C14.4541 187.464 29.163 217.451 47.3073 217.451Z" fill="#AD0300"/>
<path d="M50.9665 260C37.826 181.225 50.8339 102.738 50.9668 101.954L52.2754 102.176C52.1428 102.957 39.1731 181.234 52.2757 259.782L50.9665 260Z" fill="#3F3D56"/>
<path d="M76.5312 136.631L46.8223 152.508L47.4484 153.677L77.1573 137.8L76.5312 136.631Z" fill="#3F3D56"/>
<path d="M16.0952 144.584L15.4688 145.753L45.1733 161.639L45.7997 160.469L16.0952 144.584Z" fill="#3F3D56"/>
<path d="M125.117 201.815C149.946 201.815 170.074 160.781 170.074 110.162C170.074 59.5444 149.946 18.5103 125.117 18.5103C100.288 18.5103 80.1602 59.5444 80.1602 110.162C80.1602 160.781 100.288 201.815 125.117 201.815Z" fill="#AD0300"/>
<path d="M130.366 260C112.391 152.243 130.185 44.8799 130.367 43.8081L131.675 44.0296C131.494 45.0994 113.738 152.252 131.676 259.783L130.366 260Z" fill="#3F3D56"/>
<path d="M165.224 91.4339L124.569 113.161L125.195 114.33L165.85 92.6035L165.224 91.4339Z" fill="#3F3D56"/>
<path d="M82.2905 102.318L81.6641 103.487L122.313 125.225L122.939 124.055L82.2905 102.318Z" fill="#3F3D56"/>
<path d="M502.788 237.529C512.065 237.529 519.585 222.198 519.585 203.286C519.585 184.373 512.065 169.042 502.788 169.042C493.512 169.042 485.991 184.373 485.991 203.286C485.991 222.198 493.512 237.529 502.788 237.529Z" fill="#3F3D56"/>
<path d="M501.237 259.337C507.964 219.008 501.305 178.825 501.237 178.424L499.928 178.645C499.996 179.044 506.617 219.016 499.928 259.119L501.237 259.337Z" fill="#AD0300"/>
<path d="M488 195.922L487.374 197.092L502.563 205.209L503.189 204.04L488 195.922Z" fill="#AD0300"/>
<path d="M518.594 199.988L503.406 208.11L504.033 209.28L519.22 201.158L518.594 199.988Z" fill="#AD0300"/>
<path d="M543.147 217.451C561.291 217.451 576 187.464 576 150.474C576 113.484 561.291 83.4976 543.147 83.4976C525.003 83.4976 510.294 113.484 510.294 150.474C510.294 187.464 525.003 217.451 543.147 217.451Z" fill="#AD0300"/>
<path d="M539.487 260C552.627 181.225 539.62 102.738 539.487 101.954L538.178 102.176C538.311 102.957 551.28 181.234 538.178 259.782L539.487 260Z" fill="#3F3D56"/>
<path d="M513.923 136.631L513.297 137.8L543.006 153.678L543.632 152.508L513.923 136.631Z" fill="#3F3D56"/>
<path d="M574.36 144.584L544.655 160.47L545.282 161.639L574.986 145.754L574.36 144.584Z" fill="#3F3D56"/>
<path d="M465.337 201.815C490.166 201.815 510.294 160.781 510.294 110.162C510.294 59.5444 490.166 18.5103 465.337 18.5103C440.508 18.5103 420.38 59.5444 420.38 110.162C420.38 160.781 440.508 201.815 465.337 201.815Z" fill="#AD0300"/>
<path d="M460.088 260C478.063 152.243 460.269 44.8799 460.087 43.8081L458.779 44.0296C458.96 45.0994 476.715 152.252 458.778 259.783L460.088 260Z" fill="#3F3D56"/>
<path d="M425.231 91.434L424.604 92.6035L465.259 114.33L465.885 113.161L425.231 91.434Z" fill="#3F3D56"/>
<path d="M508.164 102.318L467.516 124.055L468.142 125.225L508.79 103.487L508.164 102.318Z" fill="#3F3D56"/>
<path d="M340.34 58.5198L345.654 54.2733C341.526 53.8183 339.829 56.0677 339.135 57.8482C335.91 56.5102 332.399 58.2637 332.399 58.2637L343.031 62.1202C342.495 60.6888 341.561 59.4398 340.34 58.5198Z" fill="#3F3D56"/>
<path d="M210.462 21.0315L215.776 16.7851C211.648 16.33 209.952 18.5795 209.257 20.3599C206.032 19.0219 202.521 20.7754 202.521 20.7754L213.154 24.6319C212.617 23.2005 211.683 21.9516 210.462 21.0315Z" fill="#3F3D56"/>
<path d="M422.308 4.3059L427.621 0.0594689C423.493 -0.395581 421.797 1.85387 421.103 3.63433C417.878 2.29628 414.367 4.04985 414.367 4.04985L424.999 7.90635C424.463 6.47494 423.529 5.22597 422.308 4.3059Z" fill="#3F3D56"/>
<path d="M433.036 252.066C431.623 252.066 430.236 252.438 429.013 253.144C427.771 252.022 426.23 251.285 424.577 251.021C422.923 250.757 421.229 250.978 419.699 251.658C418.169 252.338 416.869 253.447 415.958 254.85C415.046 256.253 414.562 257.891 414.564 259.564H441.088C440.944 257.528 440.033 255.623 438.538 254.232C437.044 252.841 435.078 252.067 433.036 252.066Z" fill="#3F3D56"/>
<path d="M163.468 252.066C162.055 252.066 160.667 252.438 159.445 253.144C158.203 252.022 156.661 251.285 155.008 251.021C153.355 250.757 151.66 250.978 150.13 251.658C148.6 252.338 147.301 253.447 146.389 254.85C145.478 256.253 144.994 257.891 144.996 259.564H171.52C171.375 257.528 170.464 255.623 168.97 254.232C167.476 252.841 165.51 252.067 163.468 252.066Z" fill="#3F3D56"/>
<path d="M301.427 252.066C300.014 252.066 298.626 252.438 297.404 253.144C296.162 252.022 294.621 251.285 292.967 251.021C291.314 250.757 289.619 250.978 288.089 251.658C286.559 252.338 285.26 253.447 284.348 254.85C283.437 256.253 282.953 257.891 282.955 259.564H309.479C309.334 257.528 308.423 255.623 306.929 254.232C305.435 252.841 303.469 252.067 301.427 252.066Z" fill="#3F3D56"/>
<path d="M272.316 233.135H195.793V235.601H207.727V259.032H210.196V235.601H256.679V259.032H259.147V235.601H272.316V233.135Z" fill="#3F3D56"/>
<path d="M272.466 225.756H195.943V228.223H272.466V225.756Z" fill="#3F3D56"/>
<path d="M272.466 219.59H195.943V222.057H272.466V219.59Z" fill="#3F3D56"/>
<path d="M272.466 213.425H195.943V215.891H272.466V213.425Z" fill="#3F3D56"/>
<path d="M391.803 233.135H315.28V235.601H327.215V259.032H329.683V235.601H376.166V259.032H378.635V235.601H391.803V233.135Z" fill="#3F3D56"/>
<path d="M391.954 225.756H315.431V228.223H391.954V225.756Z" fill="#3F3D56"/>
<path d="M391.954 219.59H315.431V222.057H391.954V219.59Z" fill="#3F3D56"/>
<path d="M391.954 213.425H315.431V215.891H391.954V213.425Z" fill="#3F3D56"/>
</g>
<defs>
<clipPath id="clip0_73_596">
<rect width="576" height="260" fill="white"/>
</clipPath>
</defs>
</svg>
