<svg width="237" height="210" viewBox="0 0 237 210" fill="none" xmlns="http://www.w3.org/2000/svg">
<g clip-path="url(#clip0_73_737)">
<path d="M120.934 209.995H55.4538C46.9218 209.995 39.9805 203.071 39.9805 194.561V26.0542C39.9805 17.5435 46.9218 10.6196 55.4538 10.6196H120.934C129.466 10.6196 136.407 17.5435 136.407 26.0542V194.561C136.407 203.071 129.466 209.995 120.934 209.995Z" fill="#2F2E41"/>
<path d="M121.001 205.83H55.3877C48.9857 205.83 43.7773 200.634 43.7773 194.248V25.4196C43.7773 19.0338 48.9857 13.8384 55.3877 13.8384H121.001C127.403 13.8384 132.611 19.0338 132.611 25.4196V194.248C132.611 200.634 127.403 205.83 121.001 205.83Z" fill="white"/>
<path d="M98.4439 24.82H77.564C75.1567 24.82 73.1982 22.8665 73.1982 20.4652C73.1982 18.0639 75.1567 16.1104 77.564 16.1104H98.4439C100.851 16.1104 102.81 18.0639 102.81 20.4652C102.81 22.8665 100.851 24.82 98.4439 24.82Z" fill="#2F2E41"/>
<path d="M120.289 85.4817H116.714V121.14H120.289V85.4817Z" fill="#AD0300"/>
<path d="M114.3 114.9H110.726V121.14H114.3V114.9Z" fill="#AD0300"/>
<path d="M108.313 113.117H104.738V121.14H108.313V113.117Z" fill="#AD0300"/>
<path d="M102.325 112.226H98.75V121.14H102.325V112.226Z" fill="#AD0300"/>
<path d="M96.3365 112.226H92.7617V121.14H96.3365V112.226Z" fill="#AD0300"/>
<path d="M90.3492 83.6987H86.7744V121.14H90.3492V83.6987Z" fill="#AD0300"/>
<path d="M84.9869 113.563H81.4121V121.586H84.9869V113.563Z" fill="#AD0300"/>
<path d="M78.7311 113.563H75.1562V121.586H78.7311V113.563Z" fill="#AD0300"/>
<path d="M67.1129 113.563H63.5381V121.586H67.1129V113.563Z" fill="#AD0300"/>
<path d="M72.4752 116.237H68.9004V121.586H72.4752V116.237Z" fill="#AD0300"/>
<path d="M0 209.26C0 209.671 0.469741 210 1.05802 210H235.942C236.526 210 237 209.671 237 209.26C237 208.848 236.53 208.52 235.942 208.52H1.05802C0.474131 208.52 0 208.848 0 209.26Z" fill="#2F2E43"/>
<path d="M137.713 104.999L141.738 93.8484L135.211 91.5044L131.186 102.655C129.577 103.38 128.174 104.874 127.457 106.86C126.202 110.336 127.523 113.993 130.406 115.029C133.29 116.065 136.645 114.086 137.899 110.611C138.616 108.624 138.489 106.581 137.713 104.999Z" fill="#E29295"/>
<path d="M147.558 45.741L129.233 100.185L140.652 104.009L162.196 51.1544" fill="#2F2E41"/>
<path d="M146.604 111.999C146.41 111.916 146.218 111.826 146.029 111.728C143.777 110.561 142.309 108.462 141.664 105.49C139.239 94.3049 137.387 61.2593 140.849 53.1843C144.158 45.4675 161.025 28.3237 161.197 28.0835L161.307 27.929L168.779 33.4175C174.144 37.3593 175.96 44.5794 173.096 50.5856C166.098 65.2602 154.956 92.6235 158.947 111.01L158.98 111.161L158.837 111.222C158.538 111.348 151.701 114.174 146.604 111.999Z" fill="#2F2E41"/>
<path d="M172.859 68.1345L177.618 85.3012L146.104 84.927L150.35 69.2572L172.859 68.1345Z" fill="#E29295"/>
<path d="M143.858 192.327H136.318V202.239H143.858V192.327Z" fill="#E29295"/>
<path d="M142.571 209.08H126.545C125.176 209.08 123.799 208.767 122.565 208.175L119.61 206.759C118.999 206.466 118.604 205.84 118.604 205.164C118.604 204.371 119.14 203.669 119.906 203.458L126.001 201.776L136.428 196.308L136.436 196.348C136.631 197.333 136.933 198.821 136.972 198.911C138.041 200.133 139.139 200.696 140.237 200.586C142.15 200.392 143.423 198.188 143.435 198.165L143.445 198.148L143.464 198.15C143.913 198.197 144.244 198.377 144.45 198.686C144.886 199.343 144.62 200.354 144.576 200.507C145.099 201.017 145.334 203.866 145.352 204.096C146.108 204.896 146.467 205.664 146.419 206.38C146.378 207.006 146.03 207.588 145.385 208.109C144.609 208.735 143.61 209.08 142.571 209.08Z" fill="#2F2E41"/>
<path d="M193.583 187.807L186.344 189.907L189.119 199.425L196.359 197.324L193.583 187.807Z" fill="#E29295"/>
<path d="M197.038 204.251L181.65 208.717C180.335 209.098 178.926 209.181 177.574 208.957L174.341 208.42C173.672 208.309 173.118 207.818 172.929 207.168C172.707 206.407 173.024 205.585 173.7 205.168L179.082 201.854L187.563 193.699L187.582 193.735C188.045 194.627 188.752 195.972 188.814 196.048C190.183 196.923 191.395 197.157 192.418 196.745C194.201 196.026 194.805 193.555 194.811 193.53L194.816 193.511L194.835 193.508C195.278 193.427 195.647 193.508 195.931 193.748C196.534 194.257 196.562 195.302 196.562 195.46C197.207 195.805 198.23 198.475 198.312 198.691C199.262 199.248 199.822 199.886 199.977 200.587C200.112 201.199 199.941 201.855 199.468 202.534C198.898 203.352 198.035 203.962 197.038 204.251Z" fill="#2F2E41"/>
<path d="M178.367 82.6817L146.104 83.4301C146.104 83.4301 126.498 139.803 127.249 193.315H154.163L155.76 131.196L160.436 195.727L195.902 193.69L178.367 82.6817Z" fill="#2F2E41"/>
<path d="M172.113 14.1937C172.113 7.44136 166.626 1.96753 159.857 1.96753C153.087 1.96753 147.6 7.44136 147.6 14.1937C147.6 19.6698 151.209 24.3044 156.184 25.8609L158.554 41.481L170.633 31.4402C170.633 31.4402 168.024 28.1247 166.624 24.3863C169.932 22.1968 172.113 18.4501 172.113 14.1937Z" fill="#E29295"/>
<path d="M172.676 27.8064L157.232 32.7547L150.715 47.6258L147.166 54.1163C145.551 57.0711 146.079 60.7346 148.465 63.1146L150.715 65.359L147.578 76.8334L176.859 75.7903L178.718 49.8283C178.872 47.6856 178.6 45.5337 177.919 43.4958L172.676 27.8064Z" fill="#AD0300"/>
<path d="M176.049 30.2574C176.049 30.2574 175.476 34.5889 170.173 34.7304C163.002 34.9217 159.417 35.0173 159.417 35.0173C159.417 35.0173 168.51 12.9433 164.771 15.4301C161.032 17.9169 151.061 7.49144 151.061 7.49144L148.119 12.9953C148.119 12.9953 141.09 10.4565 148.88 4.23947C148.88 4.23947 158.174 -2.928 168.041 1.37608C177.908 5.68016 176.049 30.2574 176.049 30.2574Z" fill="#2F2E41"/>
<path d="M182.087 110.176C181.875 110.176 181.664 110.168 181.452 110.152C178.921 109.963 176.743 108.609 174.979 106.13C168.339 96.7968 153.607 67.1406 153.607 58.3578C153.607 49.9648 162.356 27.5858 162.419 27.2975L162.46 27.1121L171.493 29.2275C177.981 30.7468 182.497 36.6729 182.231 43.3187C181.583 59.5558 182.127 89.0854 193.045 104.424L193.135 104.551L193.028 104.662C192.802 104.896 187.63 110.176 182.087 110.176Z" fill="#2F2E41"/>
<path d="M183.467 103.502L181.384 91.8345L174.555 93.0473L176.637 104.715C175.605 106.144 175.134 108.137 175.505 110.215C176.154 113.852 179.126 116.366 182.144 115.83C185.161 115.294 187.081 111.912 186.432 108.275C186.061 106.196 184.93 104.488 183.467 103.502Z" fill="#E29295"/>
<path d="M162.392 47.235L173.71 103.545L185.52 101.183L177.787 44.6504" fill="#2F2E41"/>
</g>
<defs>
<clipPath id="clip0_73_737">
<rect width="237" height="210" fill="white"/>
</clipPath>
</defs>
</svg>
