<svg width="315" height="210" viewBox="0 0 315 210" fill="none" xmlns="http://www.w3.org/2000/svg">
<g clip-path="url(#clip0_73_697)">
<path d="M58.8477 78.2697L48.1378 78.4267L51.2563 68.6615L58.3293 70.1201C57.2046 72.4982 57.444 75.2319 58.8477 78.2697Z" fill="#FFB9B9"/>
<path d="M308.372 39.6393L307.293 39.7776L314.525 12.9833C315.057 11.1941 315.144 9.3042 314.777 7.47479C314.459 5.98006 313.672 4.6222 312.528 3.59387C311.33 2.56514 309.862 1.89183 308.293 1.65166C306.382 1.35949 304.431 1.44572 302.554 1.90532L253.409 12.9561C251.694 13.367 250.052 14.0339 248.541 14.9336C246.897 15.8988 245.368 17.0434 243.982 18.3457C242.557 19.6737 241.278 21.1464 240.166 22.7394C239.079 24.281 238.194 25.9515 237.53 27.7114L186.11 167.341C185.255 169.637 184.7 172.031 184.458 174.465C184.233 176.626 184.339 178.808 184.772 180.938C185.135 182.789 185.891 184.542 186.992 186.082C188.001 187.483 189.423 188.542 191.065 189.115L242.989 206.763C245.296 207.539 247.772 207.685 250.156 207.185C252.704 206.637 255.1 205.548 257.178 203.992C259.512 202.261 261.519 200.138 263.107 197.72C264.866 195.063 266.18 192.144 266.999 189.075L301.811 60.0865L302.903 60.0002L308.372 39.6393Z" fill="#2F2E41"/>
<path d="M304.615 38.1557L303.536 38.2939L310.768 11.4996C311.301 9.71046 311.387 7.8206 311.021 5.99115C310.703 4.49641 309.916 3.13855 308.772 2.11024C307.574 1.0815 306.105 0.408196 304.536 0.168028C302.625 -0.124153 300.675 -0.0379278 298.798 0.421681L249.652 11.4724C247.937 11.8834 246.295 12.5502 244.784 13.45C243.14 14.4152 241.611 15.5597 240.226 16.8621C238.8 18.1901 237.521 19.6628 236.409 21.2557C235.323 22.7974 234.437 24.4679 233.773 26.2278L182.353 165.857C181.499 168.153 180.943 170.547 180.701 172.981C180.476 175.143 180.582 177.325 181.016 179.455C181.378 181.305 182.134 183.059 183.235 184.599C184.244 185.999 185.667 187.058 187.308 187.632L239.232 205.28C241.539 206.055 244.015 206.201 246.399 205.701C248.947 205.153 251.343 204.064 253.422 202.509C255.755 200.778 257.762 198.654 259.35 196.236C261.109 193.579 262.423 190.661 263.242 187.591L298.054 58.6028L299.146 58.5166L304.615 38.1557Z" fill="#090814"/>
<path d="M298.362 3.9189L291.138 5.48121C291.217 6.09825 291.155 6.7249 290.956 7.31505C290.731 8.00573 290.405 8.66009 289.987 9.25725C289.048 10.6121 287.794 11.7259 286.331 12.5058C286.156 12.5977 285.981 12.6827 285.807 12.7606C285.633 12.8386 285.459 12.9093 285.285 12.9727C285.111 13.0361 284.939 13.0922 284.768 13.1409C284.597 13.1896 284.428 13.2306 284.261 13.264L256.016 18.9104C255.492 19.0306 254.947 19.0245 254.426 18.8925C254.006 18.7814 253.636 18.5354 253.374 18.1934C253.11 17.826 252.961 17.3901 252.945 16.9399C252.923 16.3655 253.015 15.7925 253.216 15.2528C253.266 15.1073 253.323 14.9607 253.387 14.8131C253.451 14.6655 253.521 14.5179 253.597 14.3703C253.672 14.2219 253.754 14.0743 253.842 13.9275C253.931 13.7807 254.025 13.634 254.124 13.4874L248.776 14.6434C247.487 14.9415 246.253 15.4344 245.116 16.1047C243.875 16.8264 242.722 17.6849 241.677 18.6638C240.6 19.6638 239.634 20.7743 238.796 21.9764C237.978 23.138 237.313 24.3976 236.818 25.7248L185.496 166.566C184.858 168.297 184.448 170.102 184.276 171.936C184.118 173.555 184.21 175.188 184.552 176.779C184.836 178.154 185.418 179.453 186.256 180.586C187.025 181.614 188.097 182.383 189.325 182.787L241.633 199.565C243.359 200.111 245.201 200.193 246.969 199.801C248.853 199.375 250.621 198.556 252.157 197.398C253.874 196.114 255.353 194.546 256.527 192.762C257.825 190.804 258.8 188.653 259.414 186.392L307.206 12.2789C307.607 10.9499 307.681 9.54554 307.423 8.18244C307.198 7.06536 306.626 6.04537 305.786 5.26485C304.906 4.4845 303.819 3.96732 302.652 3.77362C301.227 3.53715 299.768 3.58656 298.362 3.9189Z" fill="white"/>
<path d="M270.312 70.6239H166.261V35.813H270.313L270.312 70.6239Z" fill="white"/>
<path d="M239.89 82.9102H137.912V131.714H239.89V82.9102Z" fill="white"/>
<path d="M154.479 106.346C158.553 106.346 161.855 103.086 161.855 99.0638C161.855 95.0417 158.553 91.7812 154.479 91.7812C150.405 91.7812 147.103 95.0417 147.103 99.0638C147.103 103.086 150.405 106.346 154.479 106.346Z" fill="#AD0300"/>
<path d="M171.515 94.2087C171.193 94.2144 170.886 94.3448 170.66 94.5718C170.434 94.7988 170.308 95.1042 170.308 95.4224C170.308 95.7406 170.434 96.0461 170.66 96.273C170.886 96.5 171.193 96.6304 171.515 96.6361H229.473C229.795 96.6304 230.102 96.5 230.328 96.273C230.554 96.0461 230.681 95.7406 230.681 95.4224C230.681 95.1042 230.554 94.7988 230.328 94.5718C230.102 94.3448 229.795 94.2144 229.473 94.2087H171.515Z" fill="#E6E6E6"/>
<path d="M171.516 101.491C171.194 101.496 170.886 101.626 170.66 101.852C170.434 102.079 170.306 102.384 170.306 102.702C170.305 103.021 170.431 103.326 170.656 103.554C170.882 103.781 171.189 103.912 171.511 103.919H196.456C196.778 103.913 197.085 103.783 197.311 103.556C197.537 103.329 197.663 103.023 197.663 102.705C197.663 102.387 197.537 102.081 197.311 101.854C197.085 101.627 196.778 101.497 196.456 101.491H171.516Z" fill="#E6E6E6"/>
<path d="M148.821 113.134C147.886 113.134 147.125 113.677 147.125 114.347C147.125 115.017 147.886 115.561 148.821 115.561H228.785C229.721 115.561 230.482 115.017 230.482 114.347C230.482 113.677 229.721 113.134 228.785 113.134H148.821Z" fill="#E6E6E6"/>
<path d="M148.821 120.416C147.886 120.416 147.125 120.96 147.125 121.63C147.125 122.3 147.886 122.844 148.821 122.844H210.379C211.314 122.844 212.075 122.3 212.075 121.63C212.075 120.96 211.314 120.416 210.379 120.416H148.821Z" fill="#E6E6E6"/>
<path d="M240.929 132.738H136.876V81.8865H240.929V132.738ZM138.95 130.69H238.855V83.9339H138.95V130.69Z" fill="#E6E6E6"/>
<path d="M183.864 60.2725C187.938 60.2725 191.24 57.012 191.24 52.99C191.24 48.968 187.938 45.7075 183.864 45.7075C179.79 45.7075 176.487 48.968 176.487 52.99C176.487 57.012 179.79 60.2725 183.864 60.2725Z" fill="#AD0300"/>
<path d="M200.899 48.1347C200.736 48.1318 200.573 48.1611 200.422 48.2208C200.27 48.2805 200.132 48.3694 200.015 48.4824C199.899 48.5954 199.806 48.7302 199.743 48.8789C199.68 49.0275 199.647 49.1872 199.647 49.3484C199.647 49.5096 199.68 49.6693 199.743 49.8179C199.806 49.9666 199.899 50.1014 200.015 50.2144C200.132 50.3274 200.27 50.4163 200.422 50.476C200.573 50.5357 200.736 50.565 200.899 50.5621H258.857C259.18 50.5564 259.487 50.426 259.713 50.199C259.938 49.972 260.065 49.6666 260.065 49.3484C260.065 49.0302 259.938 48.7248 259.713 48.4978C259.487 48.2708 259.18 48.1404 258.857 48.1347H200.899Z" fill="#E6E6E6"/>
<path d="M200.899 55.4172C200.736 55.414 200.574 55.443 200.422 55.5024C200.27 55.5618 200.132 55.6504 200.015 55.7632C199.898 55.8759 199.806 56.0105 199.742 56.159C199.679 56.3076 199.646 56.4671 199.646 56.6283C199.645 56.7896 199.677 56.9492 199.74 57.0981C199.803 57.2469 199.895 57.3818 200.012 57.495C200.128 57.6083 200.266 57.6975 200.417 57.7575C200.569 57.8175 200.731 57.8471 200.894 57.8446H246.499C246.663 57.8475 246.825 57.8182 246.977 57.7585C247.128 57.6988 247.267 57.6099 247.383 57.4969C247.5 57.3839 247.592 57.2491 247.655 57.1005C247.718 56.9518 247.751 56.7922 247.751 56.6309C247.751 56.4697 247.718 56.3101 247.655 56.1614C247.592 56.0127 247.5 55.8779 247.383 55.7649C247.267 55.6519 247.128 55.563 246.977 55.5033C246.825 55.4436 246.663 55.4143 246.499 55.4172H200.899Z" fill="#E6E6E6"/>
<path d="M270.312 70.6239H166.261V35.813H270.313L270.312 70.6239ZM168.333 68.5761H268.237V37.8616H168.333L168.333 68.5761Z" fill="#E6E6E6"/>
<path d="M59.2395 204.035H64.6833L67.273 186.448H59.2383L59.2395 204.035Z" fill="#FFB6B6"/>
<path d="M13.0586 198.795L17.2949 201.086L28.2939 186.098L22.0419 182.718L13.0586 198.795Z" fill="#FFB6B6"/>
<path d="M59.023 194.275C58.6114 194.275 58.214 194.127 57.9049 193.859C57.5959 193.59 57.3963 193.22 57.3433 192.817L51.5674 148.877C51.5418 148.682 51.4547 148.501 51.3185 148.359C51.1823 148.216 51.004 148.12 50.8089 148.083C50.6139 148.047 50.4122 148.072 50.2326 148.155C50.053 148.239 49.9046 148.376 49.8087 148.547L25.7376 191.664C25.539 192.016 25.2191 192.286 24.8359 192.425C24.4527 192.564 24.0318 192.563 23.6496 192.421L18.4033 190.446C18.1923 190.366 17.9994 190.246 17.8361 190.092C17.6727 189.938 17.5422 189.754 17.4521 189.549C17.3621 189.345 17.3143 189.125 17.3116 188.902C17.309 188.679 17.3514 188.458 17.4366 188.251L34.1111 147.811C34.1533 147.708 34.1818 147.6 34.1961 147.49C36.4545 130.233 42.2009 121.456 43.9081 119.178C44.0328 119.01 44.1149 118.816 44.1475 118.61C44.18 118.405 44.162 118.195 44.095 117.998L43.8589 117.302C43.7651 117.026 43.7459 116.731 43.8031 116.446C43.8603 116.16 43.992 115.894 44.1851 115.674C50.3371 108.756 61.0603 112.531 61.1677 112.57L61.2216 112.59L61.2554 112.635C73.279 128.914 68.8333 181.789 67.8202 192.224C67.7821 192.616 67.6049 192.982 67.32 193.257C67.035 193.533 66.6607 193.7 66.2629 193.73L59.1532 194.27C59.1115 194.274 59.0667 194.275 59.023 194.275Z" fill="#090814"/>
<path d="M78.6517 205.891C77.0156 207.304 74.9045 208.063 72.7314 208.02C68.7221 207.963 61.2316 207.844 59.4925 207.771C57.1652 207.668 57.9372 205.663 58.0123 204.282V204.146C58.0395 202.762 58.3137 199.763 58.778 199.294C59.2423 198.826 60.8306 201.381 60.8306 201.381C60.8306 201.381 63.9322 202.293 64.7856 199.555C65.639 196.817 67.3718 196.553 67.3718 196.553C68.1587 196.209 68.1981 198.275 68.1981 198.275L74.7632 201.69L78.6155 202.299C78.7391 202.357 78.8516 202.415 78.9562 202.472C80.6984 203.458 79.9265 204.778 78.6517 205.891Z" fill="#090814"/>
<path d="M55.5334 71.7275C61.0827 71.7275 65.5814 67.2861 65.5814 61.8075C65.5814 56.3288 61.0827 51.8875 55.5334 51.8875C49.984 51.8875 45.4854 56.3288 45.4854 61.8075C45.4854 67.2861 49.984 71.7275 55.5334 71.7275Z" fill="#FFB8B8"/>
<path d="M39.873 126.602L70.1166 129.321C67.4805 120.271 65.0639 111.25 67.0331 102.263C69.5335 94.2389 69.766 89.7936 63.1698 86.0156L58.7159 76.2067L50.6552 75.9173L46.7246 74.8538C43.5495 79.894 42.2506 85.8683 43.051 91.751C44.7601 104.544 44.2986 116.415 39.873 126.602Z" fill="#AD0300"/>
<path d="M301.55 208.158H0V207.349H301.688L301.55 208.158Z" fill="#CBCBCB"/>
<path d="M103.212 118.441L28.4087 170.664L10.4834 145.638L85.2863 93.4146L103.212 118.441Z" fill="white"/>
<path d="M35.7263 154.383C38.6532 152.34 39.3482 148.341 37.2785 145.451C35.2088 142.561 31.1583 141.875 28.2313 143.918C25.3044 145.962 24.6094 149.961 26.6791 152.85C28.7488 155.74 32.7993 156.426 35.7263 154.383Z" fill="#AD0300"/>
<path d="M30.481 207.54C28.4147 208.209 26.1697 208.094 24.1853 207.215C20.5156 205.614 13.6638 202.614 12.091 201.875C9.98886 200.882 11.4933 199.334 12.1086 198.093L12.1628 197.967C12.7367 196.701 14.1773 194.045 14.79 193.792C15.4028 193.54 15.8542 196.506 15.8542 196.506C15.8542 196.506 18.3494 198.544 20.2198 196.352C22.0902 194.159 23.7905 194.586 23.7905 194.586C24.6514 194.574 23.8696 196.491 23.8696 196.491L28.5634 202.171L31.8705 204.218C31.9613 204.319 32.0417 204.417 32.1157 204.509C33.3297 206.089 32.0964 207.007 30.481 207.54Z" fill="#090814"/>
<path d="M41.731 137.112C41.4966 137.275 41.3376 137.524 41.289 137.804C41.2405 138.083 41.3063 138.37 41.4721 138.601C41.6378 138.833 41.8899 138.99 42.1729 139.038C42.4559 139.086 42.7466 139.021 42.981 138.857L84.6477 109.768C84.7637 109.687 84.8625 109.584 84.9383 109.465C85.0142 109.347 85.0656 109.214 85.0896 109.076C85.1136 108.938 85.1098 108.796 85.0784 108.659C85.047 108.522 84.9886 108.393 84.9065 108.278C84.8245 108.164 84.7203 108.066 84.6001 107.991C84.4798 107.917 84.3458 107.866 84.2057 107.842C84.0656 107.818 83.9221 107.822 83.7835 107.853C83.6448 107.884 83.5137 107.942 83.3977 108.023L41.731 137.112Z" fill="#E6E6E6"/>
<path d="M45.4809 142.346C45.3646 142.427 45.2656 142.53 45.1896 142.648C45.1135 142.767 45.0618 142.899 45.0375 143.037C45.0131 143.176 45.0166 143.317 45.0477 143.454C45.0789 143.591 45.137 143.721 45.2189 143.835C45.3007 143.95 45.4046 144.048 45.5247 144.123C45.6448 144.198 45.7788 144.249 45.9188 144.273C46.0589 144.297 46.2024 144.294 46.3411 144.263C46.4799 144.232 46.6111 144.175 46.7274 144.094L46.7309 144.091L79.5122 121.205C79.7466 121.041 79.9056 120.792 79.9542 120.513C80.0027 120.234 79.9369 119.947 79.7711 119.715C79.6053 119.484 79.3533 119.327 79.0703 119.279C78.7873 119.231 78.4966 119.296 78.2622 119.46L45.4809 142.346Z" fill="#E6E6E6"/>
<path d="M103.212 118.441L28.4087 170.664L10.4834 145.638L85.2863 93.4146L103.212 118.441ZM28.8455 168.151L100.666 118.009L84.8492 95.9278L13.029 146.069L28.8455 168.151Z" fill="#E6E6E6"/>
<path d="M63.7113 134.625L58.847 108.372L59.1897 92.1355L48.2266 91.7971L50.2824 110.062L57.3712 135.388C56.7829 136.094 56.4224 136.958 56.3362 137.869C56.2501 138.779 56.4422 139.694 56.8878 140.495C57.3335 141.297 58.0121 141.948 58.8363 142.365C59.6604 142.782 60.5922 142.945 61.5114 142.834C62.4306 142.723 63.2951 142.343 63.9932 141.742C64.6912 141.141 65.191 140.348 65.4278 139.464C65.6647 138.58 65.6278 137.647 65.322 136.784C65.0162 135.921 64.4554 135.168 63.7121 134.623L63.7113 134.625Z" fill="#FFB8B8"/>
<path d="M47.541 93.49C51.513 91.9963 55.9026 91.9963 59.8746 93.49L59.1892 79.9606C59.189 78.5254 58.6114 77.1491 57.5834 76.1344C56.5554 75.1196 55.1613 74.5496 53.7076 74.5496C52.2541 74.5498 50.8601 75.1199 49.8323 76.1346C48.8045 77.1493 48.227 78.5255 48.2268 79.9606L47.541 93.49Z" fill="#AD0300"/>
<path d="M39.0545 76.7191C39.0545 76.7191 39.6006 80.8113 44.6624 80.9449L54.9315 81.2168C54.9315 81.2168 46.252 60.3634 49.821 62.7126C53.39 65.0619 62.9064 55.2118 62.9064 55.2118L65.7145 60.4115C65.7145 60.4115 72.4233 58.0129 64.9882 52.1397C64.9882 52.1397 56.117 45.3683 46.6993 49.4346C37.2816 53.5008 39.0545 76.7191 39.0545 76.7191Z" fill="#090814"/>
</g>
<defs>
<clipPath id="clip0_73_697">
<rect width="315" height="210" fill="white"/>
</clipPath>
</defs>
</svg>
