<svg width="298" height="210" viewBox="0 0 298 210" fill="none" xmlns="http://www.w3.org/2000/svg">
<g clip-path="url(#clip0_73_769)">
<path d="M225.798 104.507C225.801 109.77 225.187 115.014 223.969 120.134C216.91 149.739 190.248 171.758 158.436 171.758C121.235 171.758 91.0742 141.647 91.0742 104.507C91.0709 92.2576 94.4192 80.2398 100.758 69.7513C107.096 59.2629 116.184 50.7023 127.04 44.9938C127.044 44.9938 127.048 44.9903 127.051 44.9903C128.876 44.0248 130.752 43.1449 132.679 42.3508C143.336 37.9696 154.936 36.3754 166.382 37.7191C167.363 37.8349 168.341 37.9723 169.308 38.1278C170.883 38.3845 172.438 38.6942 173.972 39.057C174.36 39.1436 174.744 39.2376 175.124 39.3389C175.2 39.3571 175.273 39.3788 175.349 39.3968C175.425 39.4148 175.497 39.433 175.57 39.4547H175.573C175.718 39.4909 175.863 39.5269 176.008 39.5668C176.363 39.6644 176.718 39.7621 177.073 39.8668C178.17 40.1778 179.255 40.5189 180.328 40.89C180.499 40.9479 180.665 41.0058 180.835 41.0636C180.922 41.0962 181.006 41.1252 181.093 41.1577C181.183 41.1866 181.27 41.2191 181.361 41.2516C183.771 42.1215 186.129 43.1296 188.423 44.2707L184.892 43.1353C196.187 48.9168 205.966 59.1238 214.125 73.626C214.186 73.2645 214.356 72.93 214.611 72.6668C214.867 72.4035 215.196 72.224 215.556 72.1518C215.916 72.0797 216.29 72.1185 216.627 72.2629C216.965 72.4074 217.25 72.6507 217.446 72.9608C217.495 73.0381 217.537 73.1191 217.573 73.203C217.668 73.421 217.719 73.6554 217.723 73.8929C217.727 74.1305 217.684 74.3665 217.596 74.5875C217.509 74.8084 217.378 75.01 217.213 75.1807C217.047 75.3514 216.85 75.4878 216.631 75.5821C216.619 75.5885 216.605 75.5934 216.592 75.5966L222.393 90.6557C222.808 90.6412 223.222 90.719 223.603 90.8835C223.698 90.3813 223.865 89.8955 224.099 89.4409C224.215 89.9398 224.324 90.4424 224.428 90.9486C224.465 91.1366 224.505 91.3209 224.537 91.5089V91.5127C224.736 92.507 224.91 93.5109 225.059 94.5245C225.073 94.6077 225.084 94.6871 225.099 94.7703V94.774C225.157 95.1717 225.211 95.573 225.262 95.9743C225.529 98.0967 225.697 100.249 225.765 102.432C225.787 103.122 225.798 103.813 225.798 104.507Z" fill="#F2F2F2"/>
<path d="M222.435 93.9027C223.022 108.914 223.61 123.951 222.932 138.97C222.258 153.885 220.133 168.693 218.271 183.494L215.107 208.644H216.193C216.196 206.157 213.821 203.968 211.314 204.353C208.918 204.721 207.298 207.278 207.826 209.597L208.819 209.179C207.168 205.854 204.626 201.556 200.244 202.077C198.185 202.322 196.858 203.872 195.356 205.122C193.738 206.424 191.797 207.263 189.74 207.552C187.682 207.842 185.585 207.569 183.67 206.765C183.035 206.489 182.481 207.424 183.121 207.701C184.817 208.43 186.65 208.781 188.495 208.731C190.341 208.681 192.153 208.231 193.806 207.412C194.635 206.996 195.413 206.485 196.124 205.889C196.877 205.263 197.553 204.539 198.357 203.976C200.106 202.75 202.158 202.986 203.878 204.152C205.808 205.461 206.876 207.703 207.881 209.726C208.164 210.297 209.005 209.886 208.874 209.309C208.71 208.453 208.887 207.567 209.369 206.841C209.851 206.115 210.598 205.606 211.451 205.423C213.321 205.107 215.109 206.813 215.107 208.644C215.106 209.362 216.108 209.316 216.193 208.644C218.07 193.721 220.017 178.805 221.809 163.872C222.692 156.509 223.466 149.131 223.88 141.725C224.299 134.225 224.381 126.71 224.287 119.2C224.181 110.764 223.851 102.333 223.521 93.9027C223.494 93.207 222.407 93.2035 222.435 93.9027Z" fill="#CCCCCC"/>
<path d="M273.205 108.206C266.818 112.84 260.161 117.09 253.268 120.933C251.385 121.967 249.537 122.918 247.799 123.724C245.105 124.975 242.667 125.883 240.762 126.219L240.759 126.223C240.48 126.274 240.208 126.31 239.951 126.335C237.586 126.563 235.649 125.145 234.07 122.817C231.868 119.577 230.358 114.573 229.34 109.772C229.137 108.824 228.956 107.888 228.793 106.973C228.033 102.746 227.652 99.0079 227.497 97.2435C226.779 97.0369 226.111 96.6863 225.534 96.213V96.2093C225.439 96.136 225.348 96.0576 225.262 95.9743C225.065 95.7909 224.882 95.5926 224.715 95.3813C223.927 94.4057 223.499 93.1891 223.502 91.9357C223.502 91.0688 223.706 90.214 224.1 89.441V89.4372C224.441 88.7621 224.919 88.1643 225.501 87.6806C226.084 87.197 226.76 86.8379 227.487 86.6255C228.214 86.4131 228.977 86.3519 229.729 86.4458C230.481 86.5397 231.206 86.7866 231.858 87.1713C232.511 87.556 233.077 88.0703 233.523 88.6823C233.968 89.2944 234.283 89.9911 234.448 90.7295C234.613 91.4679 234.624 92.2322 234.481 92.9751C234.338 93.7181 234.044 94.4238 233.617 95.0487L235.569 99.807L235.573 99.8105L241.36 113.904V113.908L241.422 114.056L262.8 101.297L265.784 99.5141L266.36 99.1707C267.506 98.2889 268.946 97.8776 270.386 98.0207C271.826 98.1639 273.157 98.8507 274.107 99.9408H274.11C274.62 100.531 275.003 101.221 275.235 101.965C275.467 102.71 275.543 103.495 275.458 104.27C275.373 105.045 275.129 105.795 274.742 106.472C274.354 107.149 273.831 107.74 273.205 108.206Z" fill="#FFB6B6"/>
<path d="M223.582 94.2714L222.904 94.5246C222.437 93.2736 221.961 92.0431 221.477 90.833C211.431 65.7079 197.988 49.4158 181.448 42.3148C181.198 42.2062 180.948 42.1014 180.695 42.0002C180.358 41.8592 180.017 41.7218 179.677 41.5952C179.126 41.3782 178.569 41.1757 178.011 40.9842C177.265 40.7275 176.518 40.49 175.769 40.2718C175.588 40.2176 175.404 40.1634 175.222 40.1165C174.574 39.932 173.93 39.7621 173.281 39.6138C157.806 35.915 141.958 39.7694 127.052 44.9903C127.048 44.9903 127.044 44.9939 127.041 44.9939C122.488 46.5884 118.019 48.3131 113.681 49.9871C97.637 56.1771 83.5308 61.6186 73.6982 56.9147C73.3216 56.7375 72.9521 56.5422 72.59 56.3325C72.1988 56.1047 71.8114 55.859 71.4347 55.5986C71.3877 55.5661 71.3405 55.5334 71.2971 55.4974C70.8915 55.208 70.4931 54.8971 70.1056 54.5645C69.5298 54.0696 68.9889 53.5357 68.4867 52.9665C68.3889 52.8579 68.2911 52.7495 68.197 52.6374C68.179 52.612 68.1571 52.5867 68.139 52.565C67.3969 51.6705 66.7466 50.7039 66.1979 49.6797C62.8009 43.3885 62.9602 35.0726 63.1159 26.9736C63.2825 18.2092 63.4455 9.87522 59.0055 5.02659C58.3699 4.32716 57.6468 3.71227 56.8541 3.19705C56.0631 2.67922 55.2133 2.25686 54.3227 1.93881C44.7725 -1.51777 28.3522 5.28327 5.41667 22.2046C4.6561 22.7649 3.89198 23.3362 3.11692 23.9183L2.67871 23.3397C3.45378 22.7577 4.2216 22.1828 4.98217 21.6223C15.8287 13.6247 25.3064 7.82516 33.1944 4.35765C42.2121 0.391389 49.4082 -0.635393 54.6451 1.28806C55.5613 1.62073 56.4362 2.05749 57.2525 2.58973C58.0688 3.1223 58.8178 3.75109 59.4835 4.46251C64.1771 9.49545 64.0105 18.0212 63.8402 26.9843C63.6953 34.6026 63.5433 42.4159 66.3935 48.4504C67.0247 49.8041 67.8306 51.0695 68.7909 52.2143C68.8489 52.283 68.9104 52.3517 68.9684 52.4204C69.468 52.9896 70.0065 53.5236 70.5801 54.0185C70.9168 54.3113 71.2644 54.5825 71.6195 54.8392C72.0329 55.1402 72.4621 55.419 72.9051 55.6744C73.4015 55.9641 73.9141 56.2248 74.4406 56.4555C83.998 60.6641 97.7781 55.3454 113.42 49.3109C119.62 46.9173 126.074 44.4298 132.679 42.3508C143.657 38.8942 155.054 36.5695 166.382 37.7191C167.287 37.806 168.197 37.9216 169.102 38.0627C170.735 38.3086 172.365 38.6303 173.991 39.039C174.371 39.1329 174.748 39.2341 175.125 39.3389C175.273 39.3751 175.418 39.4185 175.566 39.462C175.711 39.5017 175.86 39.5414 176.005 39.5848C176.751 39.8054 177.5 40.044 178.247 40.3007C178.88 40.5213 179.514 40.7527 180.141 40.9949C180.369 41.0853 180.601 41.1757 180.832 41.2733C181.039 41.3565 181.249 41.4433 181.455 41.53C182.614 42.0219 183.762 42.5533 184.892 43.1354C196.188 48.9168 205.966 59.1238 214.126 73.6261C214.488 74.2697 214.85 74.9242 215.205 75.5894C216.041 77.1405 216.859 78.7386 217.657 80.3837C219.239 83.6305 220.75 87.0581 222.187 90.6665C222.517 91.4837 222.84 92.3117 223.158 93.1505C223.299 93.5231 223.44 93.8954 223.582 94.2714Z" fill="#CCCCCC"/>
<path d="M2.89825 26.5209C4.49837 26.5209 5.79553 25.2258 5.79553 23.6284C5.79553 22.0309 4.49837 20.7358 2.89825 20.7358C1.29813 20.7358 0.000976562 22.0309 0.000976562 23.6284C0.000976562 25.2258 1.29813 26.5209 2.89825 26.5209Z" fill="#AD0300"/>
<path d="M57.0525 5.78575C58.6527 5.78575 59.9498 4.49073 59.9498 2.89324C59.9498 1.29575 58.6527 0.000732422 57.0525 0.000732422C55.4524 0.000732422 54.1553 1.29575 54.1553 2.89324C54.1553 4.49073 55.4524 5.78575 57.0525 5.78575Z" fill="#AD0300"/>
<path d="M56.0211 41.4222L55.5303 41.9541L85.8206 69.8127L86.3114 69.2808L56.0211 41.4222Z" fill="#3F3D56"/>
<path d="M55.7747 43.4955C56.7747 43.4955 57.5855 42.6861 57.5855 41.6877C57.5855 40.6893 56.7747 39.8799 55.7747 39.8799C54.7746 39.8799 53.9639 40.6893 53.9639 41.6877C53.9639 42.6861 54.7746 43.4955 55.7747 43.4955Z" fill="#AD0300"/>
<path d="M85.6234 21.2102L80.7414 24.9198L74.0596 29.9999C70.5955 32.6219 68.2847 36.4828 67.6131 40.7707L66.3927 48.4504L66.1972 49.6797L66.0451 50.6415L65.911 51.502L65.5091 54.0221C65.4802 54.1974 65.5084 54.3772 65.5896 54.5353C65.6707 54.6933 65.8006 54.8212 65.96 54.9C66.1194 54.9789 66.3 55.0045 66.4751 54.9732C66.6502 54.9419 66.8107 54.8553 66.9328 54.7262C66.8962 53.9771 67.1535 53.2433 67.6501 52.6806C68.1467 52.1179 68.8435 51.7707 69.5924 51.7125C69.7827 46.0569 72.8564 43.5288 77.5146 42.7195L77.5617 42.6653L77.5291 42.7305C78.2742 48.9496 76.3972 52.1664 72.4879 53.0568L72.3903 53.257C72.4219 53.3173 72.4541 53.3774 72.4817 53.4409C72.6527 53.8319 72.7347 54.2559 72.722 54.6824C72.7092 55.1088 72.602 55.5271 72.4079 55.9073C72.2139 56.2874 71.9379 56.6199 71.5998 56.8808C71.2617 57.1418 70.8699 57.3246 70.4525 57.4164C70.4506 57.4921 70.4591 57.5678 70.4778 57.6413C70.5125 57.7662 70.5757 57.8814 70.6625 57.9778C70.7493 58.0743 70.8573 58.1493 70.9781 58.1969C71.0988 58.2446 71.229 58.2637 71.3584 58.2526C71.4877 58.2415 71.6128 58.2006 71.7237 58.1331L72.5602 57.616L73.2013 57.2218L73.6975 56.9146L74.4398 56.4554L83.3019 50.9848C86.9326 48.7508 89.5479 45.1917 90.5922 41.0635L92.6926 32.8163L94.2065 26.8794L85.6234 21.2102Z" fill="#E6E6E6"/>
<path d="M85.5891 71.1664C86.5892 71.1664 87.3999 70.357 87.3999 69.3586C87.3999 68.3602 86.5892 67.5508 85.5891 67.5508C84.589 67.5508 83.7783 68.3602 83.7783 69.3586C83.7783 70.357 84.589 71.1664 85.5891 71.1664Z" fill="#AD0300"/>
<path d="M241.776 119.472L241.36 113.908V113.904L241.15 111.109C240.834 106.782 238.85 102.745 235.616 99.8465L235.572 99.8103L235.569 99.8068L225.631 90.8653C225.498 90.7417 225.328 90.6657 225.147 90.6493C224.966 90.633 224.785 90.6772 224.632 90.775C224.555 90.8209 224.486 90.8796 224.429 90.9485C224.361 91.0297 224.31 91.1235 224.278 91.2246C224.897 91.6259 225.339 92.2483 225.513 92.9643C225.687 93.6803 225.58 94.4356 225.214 95.0754L225.533 96.2092V96.2129C228.849 98.6845 229.657 102.407 228.579 107.071L228.601 107.143L228.565 107.082C224.305 104.553 221.758 101.222 222.191 96.4952C221.808 96.4277 221.443 96.284 221.118 96.0726C220.792 95.8612 220.512 95.5865 220.295 95.2648C220.078 94.9432 219.928 94.5812 219.855 94.2004C219.781 93.8196 219.785 93.4279 219.866 93.0487C219.789 93.025 219.71 93.013 219.63 93.013C219.557 93.0119 219.483 93.0217 219.413 93.042C219.237 93.0857 219.081 93.1864 218.969 93.3285C218.857 93.4705 218.795 93.6457 218.794 93.8265L218.489 107.414C218.385 111.67 219.948 115.799 222.846 118.923L223.969 120.134L228.63 125.174L232.791 129.676L240.759 126.223L240.762 126.219L242.232 125.583L241.776 119.472Z" fill="#CCCCCC"/>
<path d="M69.7923 56.4883C70.945 56.4883 71.8795 55.5554 71.8795 54.4046C71.8795 53.2537 70.945 52.3208 69.7923 52.3208C68.6395 52.3208 67.7051 53.2537 67.7051 54.4046C67.7051 55.5554 68.6395 56.4883 69.7923 56.4883Z" fill="#AD0300"/>
<path d="M78.1723 42.8788C78.9723 42.8788 79.6209 42.2313 79.6209 41.4326C79.6209 40.6338 78.9723 39.9863 78.1723 39.9863C77.3722 39.9863 76.7236 40.6338 76.7236 41.4326C76.7236 42.2313 77.3722 42.8788 78.1723 42.8788Z" fill="#3F3D56"/>
<path d="M223.332 93.0853L223.158 93.1504L222.655 93.3456L221.662 90.7713L217.664 80.398L217.657 80.3836L215.868 75.7339H215.864L215.292 74.2442L215.969 73.9839L216.592 75.5965L222.394 90.6556L223.332 93.0853Z" fill="#3F3D56"/>
<path d="M216.631 75.5821C216.618 75.5885 216.605 75.5933 216.591 75.5966C216.362 75.6911 216.115 75.7379 215.867 75.7339H215.863C215.636 75.7263 215.413 75.6773 215.204 75.5894C214.777 75.408 214.437 75.0703 214.252 74.6457C214.11 74.3255 214.066 73.971 214.125 73.626C214.186 73.2645 214.355 72.93 214.611 72.6667C214.866 72.4035 215.196 72.2239 215.556 72.1518C215.916 72.0797 216.289 72.1184 216.627 72.2629C216.964 72.4074 217.25 72.6507 217.446 72.9608C217.494 73.038 217.537 73.119 217.573 73.203C217.667 73.4209 217.718 73.6554 217.722 73.8929C217.726 74.1305 217.683 74.3665 217.596 74.5874C217.508 74.8084 217.378 75.01 217.213 75.1807C217.047 75.3513 216.849 75.4878 216.631 75.5821Z" fill="#AD0300"/>
<path d="M224.874 94.4595C224.871 94.4704 224.867 94.4808 224.86 94.4901V94.493C224.783 94.6614 224.683 94.8189 224.564 94.9612C224.34 95.2346 224.054 95.4506 223.729 95.5913C223.369 95.7479 222.975 95.8075 222.584 95.7642V95.7614C222.195 95.717 221.825 95.571 221.51 95.338C221.195 95.1051 220.947 94.7934 220.792 94.4345C220.611 94.0265 220.56 93.5733 220.644 93.1353C220.71 92.7771 220.864 92.4407 221.091 92.1559C221.319 91.871 221.613 91.6463 221.948 91.5018C221.987 91.485 222.029 91.4683 222.068 91.4544C222.115 91.4377 222.163 91.4209 222.21 91.4069C222.343 91.368 222.478 91.3409 222.615 91.326C222.668 91.3205 222.721 91.3178 222.774 91.3177C223.094 91.3066 223.413 91.3665 223.707 91.4933C223.889 91.5693 224.059 91.6687 224.215 91.7888V91.7917C224.29 91.8476 224.361 91.9091 224.427 91.9756V91.9784C224.621 92.1753 224.777 92.4058 224.888 92.6586C225.012 92.943 225.075 93.2503 225.073 93.5605C225.071 93.8708 225.003 94.1771 224.874 94.4595Z" fill="#AD0300"/>
<path d="M229.305 109.771C230.105 109.771 230.754 109.123 230.754 108.324C230.754 107.526 230.105 106.878 229.305 106.878C228.505 106.878 227.856 107.526 227.856 108.324C227.856 109.123 228.505 109.771 229.305 109.771Z" fill="#3F3D56"/>
<path d="M200.243 47.3113L200.022 47.9982L198.179 47.4053L188.422 44.2705L184.891 43.1352L181.455 42.0324L180.748 41.8046L179.752 41.4829L175.79 40.2101L175.251 40.0402L173.465 39.4653L169.308 38.1275L169.101 38.0625L137.238 27.823L135.29 27.1975L135.511 26.5105L137.354 27.1035L174.135 38.923L175.609 39.3966L176.022 39.5268L177.072 39.8667L180.299 40.9007L180.835 41.0743L181.349 41.2406L198.295 46.6858L200.243 47.3113Z" fill="#3F3D56"/>
<path d="M181.455 41.5299C181.441 41.432 181.409 41.3376 181.36 41.2515L181.349 41.2407C181.248 41.0656 181.083 40.9352 180.89 40.8754C180.869 40.8673 180.847 40.8624 180.824 40.8609H180.823C180.859 41.2524 180.815 41.6471 180.692 42.0207C180.57 42.3944 180.373 42.7391 180.112 43.0338C179.852 43.3285 179.533 43.567 179.177 43.7345C178.821 43.9021 178.434 43.9952 178.041 44.0082L178.039 44.0103C178.233 49.3543 176.483 53.2655 170.992 54.4196L170.948 54.4812L170.97 54.4125C167.961 49.2952 171.094 45.5434 175.181 42.0037C175.002 41.4472 174.997 40.8497 175.165 40.29C175.333 39.7303 175.668 39.2347 176.124 38.8683L176.123 38.8653C176.077 38.662 175.956 38.4838 175.783 38.3662C175.636 38.2601 175.459 38.2057 175.278 38.2116C175.097 38.2175 174.923 38.2834 174.784 38.3989L174.135 38.923L173.99 39.0388L173.972 39.0568L173.465 39.4654L173.281 39.6137L164.201 46.9533C160.883 49.6259 158.739 53.4846 158.226 57.7099L157.186 66.1596L156.437 72.241L165.668 76.7823L170.043 72.4834L176.026 66.6008C179.131 63.5631 180.935 59.4416 181.06 55.103L181.447 42.3146L181.455 42.0325L181.465 41.6926C181.466 41.6382 181.462 41.5838 181.455 41.5299Z" fill="#CCCCCC"/>
<path d="M135.545 28.9931C136.545 28.9931 137.356 28.1837 137.356 27.1853C137.356 26.1868 136.545 25.3774 135.545 25.3774C134.545 25.3774 133.734 26.1868 133.734 27.1853C133.734 28.1837 134.545 28.9931 135.545 28.9931Z" fill="#AD0300"/>
<path d="M199.989 49.1305C200.989 49.1305 201.799 48.3211 201.799 47.3227C201.799 46.3243 200.989 45.5149 199.989 45.5149C198.988 45.5149 198.178 46.3243 198.178 47.3227C198.178 48.3211 198.988 49.1305 199.989 49.1305Z" fill="#AD0300"/>
<path d="M170.5 57.226C171.3 57.226 171.949 56.5785 171.949 55.7798C171.949 54.981 171.3 54.3335 170.5 54.3335C169.7 54.3335 169.052 54.981 169.052 55.7798C169.052 56.5785 169.7 57.226 170.5 57.226Z" fill="#3F3D56"/>
<path d="M292.765 63.1154C292.602 62.9346 292.438 62.761 292.272 62.5875C288.176 58.2885 282.823 55.7395 277.826 55.7395C276.898 55.7395 276.011 55.7816 275.164 55.8659C271.654 56.2095 268.848 57.2653 266.743 59.0333C263.636 61.6439 262.079 65.7886 262.072 71.4675C262.072 71.7821 262.053 72.3677 262.025 73.1451C261.84 77.6755 261.166 88.714 260.561 90.3483C259.58 93.0095 258.729 95.309 259.996 97.0482C260.735 98.0642 262.187 98.8016 264.455 99.279C264.871 99.3694 265.313 99.4488 265.784 99.514C268.217 99.8359 270.67 99.981 273.125 99.9479C273.447 99.9479 273.769 99.9479 274.106 99.9407H274.11C275.272 99.9335 276.514 99.9008 277.833 99.8503C280.915 99.7309 284.779 99.4887 288.248 98.6897H288.252C288.705 98.5883 289.15 98.4727 289.585 98.3496L289.664 98.3281L289.701 98.2557C290.321 96.995 290.675 95.6203 290.74 94.2171C291.404 95.111 291.893 96.1216 292.181 97.1963L292.236 97.4025L292.431 97.3121C293.962 96.6545 295.29 95.6011 296.277 94.2605C297.222 92.8626 297.788 91.2446 297.922 89.5637C298.418 85.0007 296.538 67.3168 292.765 63.1154Z" fill="#2F2E41"/>
<path d="M293.985 209.945H272.28L268.641 191.979L267.46 209.945H247.299C247.288 196.63 243.212 181.8 249.316 169.569C249.634 168.933 253.837 168.072 249.504 167.704L249.754 166.854L250.149 165.495L250.399 164.641C250.399 164.641 251.375 163.826 250.717 163.55C250.059 163.274 251.052 162.401 251.052 162.401L254.571 150.338L254.9 149.203H280.023C281.469 150.558 282.803 152.029 284.011 153.599C284.42 154.12 284.847 154.684 285.286 155.291C285.59 155.722 285.905 156.174 286.22 156.647C289.019 160.808 291.112 165.401 292.413 170.242V170.246C292.634 171.074 292.829 171.921 293 172.787V172.791C293.152 173.561 293.286 174.342 293.391 175.141C293.47 175.723 293.539 176.313 293.59 176.909C293.892 180.214 293.786 183.544 293.275 186.823L293.985 209.945Z" fill="#2F2E41"/>
<path d="M269.459 90.1992L281.416 89.5842L286.97 98.3454C286.97 98.3454 297.419 100.09 296.695 112.383C295.971 124.676 283.981 135.463 283.981 135.463L293.186 162.112L292.295 164.652L292.41 166.077L293.624 167.587L293.749 169.149L292.673 171.62L294.136 173.985C283.603 176.61 276.496 173.939 272.724 166.11C268.4 155.337 261.119 154.31 252.231 158.573L253.56 146.672L255.201 144.475L254.284 141.61L255.662 138.854L256.38 130.1C256.38 130.1 248.52 118.31 257.544 109.431L261.165 103.284L265.217 98.3482L269.459 90.1992Z" fill="#AD0300"/>
<path d="M275.403 87.7253C282.401 87.7253 288.073 82.0622 288.073 75.0763C288.073 68.0904 282.401 62.4272 275.403 62.4272C268.406 62.4272 262.733 68.0904 262.733 75.0763C262.733 82.0622 268.406 87.7253 275.403 87.7253Z" fill="#FFB6B6"/>
<path d="M283.728 59.3553H271.324C269.824 59.0067 268.278 58.8981 266.743 59.0334C264.857 59.177 263.056 59.8724 261.564 61.0328C259.344 62.8119 258.12 65.6465 258.12 69.0162C258.126 70.0935 258.238 71.1676 258.453 72.2233L258.475 72.3354L258.584 72.3643C259.728 72.6572 260.875 72.9175 262.024 73.1452C262.299 73.1996 262.578 73.2538 262.857 73.3044C264.364 73.5827 265.87 73.8033 267.366 73.9624L267.449 73.9732L267.511 73.919C268.58 72.9377 269.428 71.7411 269.999 70.4082C270.335 71.5788 270.425 72.8061 270.263 74.0131L270.238 74.2083L270.434 74.2191C271.524 74.2805 272.615 74.3106 273.707 74.3095C278.466 74.3061 283.208 73.7295 287.828 72.592C288.132 72.5197 288.433 72.4437 288.734 72.3643L288.871 72.3281V64.4894C288.87 63.1282 288.327 61.8232 287.363 60.8607C286.399 59.8982 285.092 59.3568 283.728 59.3553Z" fill="#2F2E41"/>
<path d="M293.833 58.2828C293.592 60.6408 292.468 62.8211 290.686 64.3869C288.904 65.9526 286.595 66.7881 284.221 66.7259C281.848 66.6637 279.586 65.7084 277.888 64.0515C276.191 62.3946 275.183 60.1584 275.067 57.791C274.951 55.4236 275.735 53.0999 277.263 51.2855C278.79 49.4712 280.948 48.3001 283.304 48.007C285.66 47.7139 288.04 48.3204 289.967 49.705C291.894 51.0896 293.225 53.1501 293.695 55.4734C292.258 55.6756 290.892 56.2241 289.715 57.0716C290.433 56.983 291.162 57.0394 291.858 57.2376C292.555 57.4357 293.204 57.7715 293.767 58.2249C293.789 58.243 293.811 58.2611 293.833 58.2828Z" fill="#2F2E41"/>
<path d="M95.6093 34.1758C94.8302 34.1753 94.0685 33.945 93.4201 33.5137C86.4692 32.961 81.9169 29.9906 79.8292 24.535C79.3753 24.234 78.9878 23.8436 78.6905 23.3878C78.3931 22.9319 78.1922 22.4202 78.1001 21.884C78.0068 21.3467 78.026 20.7959 78.1566 20.2664C78.2872 19.7369 78.5262 19.2402 78.8587 18.8075C79.4961 18.0022 80.4158 17.4682 81.4321 17.3134C82.4485 17.1585 83.4858 17.3943 84.3348 17.9732L85.068 18.4576C85.0701 17.6867 85.2994 16.9335 85.7274 16.2918L85.7795 16.2152C86.0301 15.8394 86.3948 15.5538 86.82 15.4004C87.2453 15.2469 87.7086 15.2336 88.1419 15.3625C88.605 15.4904 89.0157 15.7612 89.3154 16.1361C89.615 16.5111 89.7883 16.9711 89.8103 17.4503C89.8213 17.6351 89.8441 17.8191 89.8786 18.0011C90.0049 18.6487 90.2839 19.257 90.6925 19.7756C91.101 20.2943 91.6274 20.7083 92.228 20.9835C92.8287 21.2587 93.4863 21.3872 94.1465 21.3583C94.8068 21.3294 95.4507 21.144 96.0249 20.8173C96.3703 20.6204 96.7605 20.5152 97.1583 20.5116C97.556 20.508 97.9481 20.6062 98.297 20.7969C98.6138 20.967 98.8801 21.2175 99.0689 21.5232C99.2577 21.8289 99.3624 22.1789 99.3724 22.5379C99.4012 23.3367 99.1878 24.1255 98.7601 24.801C98.3324 25.4766 97.7102 26.0075 96.9752 26.3241L97.7119 26.811C98.6014 27.385 99.2315 28.2827 99.4686 29.3132C99.7056 30.3437 99.5308 31.4259 98.9812 32.3298C98.6985 32.777 98.3286 33.163 97.8936 33.4648C97.4586 33.7666 96.9673 33.9781 96.4489 34.0868C96.173 34.1458 95.8916 34.1757 95.6093 34.1758Z" fill="#3F3D56"/>
<path d="M164.006 83.2766C163.793 83.2764 163.581 83.2444 163.376 83.1817C162.969 83.059 162.607 82.8208 162.333 82.4961C162.06 82.1714 161.886 81.7743 161.835 81.353L161.828 81.3043C161.722 80.5947 161.433 79.9247 160.991 79.3593C160.548 78.794 159.967 78.3527 159.303 78.0782C158.639 77.8038 157.915 77.7056 157.202 77.7932C156.488 77.8808 155.81 78.1512 155.232 78.5781C154.938 78.7902 154.594 78.9241 154.233 78.9673C153.872 79.0106 153.507 78.9617 153.17 78.8254C152.834 78.689 152.537 78.4696 152.309 78.1877C152.08 77.9057 151.927 77.5705 151.864 77.2134C151.731 76.4227 151.841 75.6102 152.179 74.8831C152.518 74.1559 153.069 73.5481 153.76 73.1398L152.854 72.6942C152.366 72.4531 151.932 72.1148 151.58 71.7002C151.227 71.2856 150.963 70.8035 150.804 70.2833C150.643 69.762 150.592 69.2131 150.655 68.6713C150.717 68.1294 150.892 67.6064 151.167 67.1352C151.697 66.2557 152.542 65.6099 153.53 65.3281C154.519 65.0463 155.578 65.1495 156.493 65.6169C162.789 64.744 167.599 67.1754 170.995 72.7514C171.483 72.9926 171.917 73.3308 172.27 73.7454C172.622 74.16 172.887 74.6422 173.046 75.1623C173.206 75.6836 173.257 76.2324 173.195 76.7742C173.132 77.316 172.958 77.839 172.683 78.3101C172.152 79.1895 171.308 79.8353 170.319 80.1172C169.331 80.3991 168.272 80.296 167.356 79.8287L166.568 79.4407C166.663 80.2057 166.531 80.9818 166.188 81.6722C166.031 81.991 165.832 82.2873 165.596 82.5532C165.398 82.7797 165.154 82.9614 164.879 83.0862C164.605 83.2109 164.308 83.2759 164.006 83.2766Z" fill="#3F3D56"/>
<path d="M234.504 136.175C233.985 136.181 233.476 136.035 233.039 135.755C232.602 135.475 232.257 135.074 232.046 134.6L232.022 134.546C231.712 133.839 231.617 133.058 231.749 132.298L230.823 132.7C230.338 132.91 229.815 133.022 229.285 133.029C228.756 133.035 228.231 132.936 227.74 132.738C227.249 132.539 226.803 132.245 226.428 131.873C226.052 131.5 225.755 131.057 225.553 130.568C225.169 129.583 225.185 128.487 225.598 127.513C226.011 126.539 226.788 125.765 227.763 125.354C230.357 119.374 235.113 116.999 242.475 118.971C243.412 118.549 244.475 118.497 245.448 118.826C246.422 119.154 247.235 119.84 247.723 120.743C247.975 121.227 248.124 121.757 248.16 122.301C248.197 122.846 248.12 123.391 247.934 123.904C247.75 124.416 247.463 124.885 247.091 125.283C246.719 125.68 246.269 125.997 245.77 126.215L244.844 126.616C245.491 127.038 245.998 127.641 246.304 128.349C246.348 128.451 246.388 128.553 246.423 128.657C246.593 129.149 246.612 129.68 246.48 130.184C246.348 130.687 246.07 131.14 245.68 131.486C245.286 131.856 244.79 132.101 244.257 132.19C243.723 132.28 243.175 132.21 242.681 131.989C242.16 131.759 241.598 131.639 241.028 131.637H241.007C240.242 131.655 239.495 131.879 238.846 132.286C238.198 132.693 237.672 133.268 237.324 133.95C237.242 134.101 237.168 134.257 237.105 134.417C236.908 134.929 236.561 135.37 236.11 135.683C235.66 135.996 235.125 136.167 234.576 136.174C234.552 136.175 234.528 136.175 234.504 136.175Z" fill="#3F3D56"/>
<path d="M288.933 106.979C288.066 106.728 287.152 106.688 286.267 106.86C285.381 107.033 284.55 107.414 283.842 107.972C283.133 108.53 282.568 109.248 282.193 110.067C281.819 110.887 281.645 111.784 281.687 112.683L267.694 140.952L247.617 136.451C247.202 135.359 246.451 134.426 245.472 133.786C244.492 133.146 243.335 132.832 242.166 132.889C240.997 132.947 239.877 133.372 238.965 134.104C238.053 134.837 237.397 135.839 237.09 136.966C236.784 138.094 236.844 139.29 237.26 140.382C237.676 141.473 238.429 142.406 239.409 143.045C240.388 143.683 241.546 143.996 242.715 143.937C243.884 143.879 245.004 143.452 245.915 142.719C250.691 145.465 272.339 157.309 276.933 149.189C280.795 142.364 293.247 119.753 293.026 112.256C292.991 111.057 292.576 109.9 291.841 108.952C291.105 108.003 290.087 107.313 288.933 106.979Z" fill="#FFB6B6"/>
<path d="M177.777 42.8725C178.896 42.8725 179.803 41.9668 179.803 40.8496C179.803 39.7323 178.896 38.8267 177.777 38.8267C176.658 38.8267 175.751 39.7323 175.751 40.8496C175.751 41.9668 176.658 42.8725 177.777 42.8725Z" fill="#AD0300"/>
</g>
<defs>
<clipPath id="clip0_73_769">
<rect width="298" height="210" fill="white"/>
</clipPath>
</defs>
</svg>
