<svg width="626" height="626" viewBox="0 0 626 626" fill="none" xmlns="http://www.w3.org/2000/svg">
<path d="M626 478.765H0V479.078H626V478.765Z" fill="#E0E0E0"/>
<path d="M472.831 492.023H429.762V492.336H472.831V492.023Z" fill="#E0E0E0"/>
<path d="M139.022 492.174H114.783V492.487H139.022V492.174Z" fill="#E0E0E0"/>
<path d="M314.252 491.448H265.123V491.761H314.252V491.448Z" fill="#E0E0E0"/>
<path d="M263.871 486.99H241.911V487.303H263.871V486.99Z" fill="#E0E0E0"/>
<path d="M531.55 487.153H465.206V487.466H531.55V487.153Z" fill="#E0E0E0"/>
<path d="M296.724 422.926H54.9753C53.0814 422.922 51.2663 422.168 49.9283 420.827C48.5903 419.487 47.8389 417.671 47.8389 415.777V75.9463C47.8554 74.0633 48.6141 72.2629 49.9503 70.9361C51.2865 69.6093 53.0922 68.8632 54.9753 68.86H296.724C298.62 68.86 300.438 69.6132 301.779 70.9539C303.12 72.2945 303.873 74.1129 303.873 76.0089V415.777C303.873 417.673 303.12 419.491 301.779 420.832C300.438 422.172 298.62 422.926 296.724 422.926ZM54.9753 69.1104C53.1644 69.1137 51.4289 69.8354 50.1496 71.117C48.8704 72.3986 48.1519 74.1355 48.1519 75.9463V415.777C48.1519 417.587 48.8704 419.324 50.1496 420.606C51.4289 421.888 53.1644 422.609 54.9753 422.613H296.724C298.536 422.609 300.273 421.888 301.554 420.607C302.835 419.325 303.557 417.589 303.56 415.777V75.9463C303.557 74.1343 302.835 72.3975 301.554 71.1162C300.273 69.835 298.536 69.1137 296.724 69.1104H54.9753Z" fill="#E0E0E0"/>
<path d="M567.544 422.926H325.783C323.888 422.922 322.071 422.168 320.731 420.828C319.391 419.488 318.637 417.672 318.634 415.777V75.9463C318.654 74.0622 319.415 72.2618 320.753 70.9353C322.091 69.6088 323.898 68.8632 325.783 68.86H567.544C569.425 68.8665 571.227 69.614 572.561 70.9405C573.894 72.2669 574.651 74.0655 574.668 75.9463V415.777C574.668 417.668 573.918 419.483 572.583 420.823C571.247 422.163 569.436 422.919 567.544 422.926ZM325.783 69.1104C323.971 69.1137 322.234 69.835 320.953 71.1162C319.671 72.3975 318.95 74.1343 318.947 75.9463V415.777C318.95 417.589 319.671 419.325 320.953 420.607C322.234 421.888 323.971 422.609 325.783 422.613H567.544C569.356 422.609 571.093 421.888 572.374 420.607C573.655 419.325 574.376 417.589 574.38 415.777V75.9463C574.376 74.1343 573.655 72.3975 572.374 71.1162C571.093 69.835 569.356 69.1137 567.544 69.1104H325.783Z" fill="#E0E0E0"/>
<path d="M550.016 322.052C534.616 298.602 548.676 273.399 546.335 247.308C543.994 221.216 519.204 215.532 523.899 193.472C529.333 167.831 514.847 143.229 498.433 143.229C482.02 143.229 467.546 167.768 472.98 193.434C477.675 215.532 452.948 221.228 450.544 247.27C448.14 273.312 462.263 298.602 446.851 322.014C431.439 345.427 435.495 376.514 444.172 391.926C446.48 396.015 449.262 399.819 452.46 403.257C458.34 409.569 465.457 414.603 473.368 418.045C481.278 421.487 489.813 423.264 498.44 423.264C507.066 423.264 515.601 421.487 523.512 418.045C531.422 414.603 538.539 409.569 544.419 403.257C547.61 399.815 550.387 396.012 552.695 391.926C561.384 376.552 565.428 345.552 550.016 322.052Z" fill="#E0E0E0"/>
<path d="M498.434 339.843C499.457 339.843 500.469 340.044 501.414 340.436C502.359 340.827 503.217 341.401 503.94 342.124C504.664 342.847 505.237 343.705 505.629 344.65C506.02 345.595 506.221 346.608 506.221 347.63V478.765H490.646V347.63C490.646 346.608 490.848 345.595 491.239 344.65C491.631 343.705 492.204 342.847 492.927 342.124C493.65 341.401 494.509 340.827 495.454 340.436C496.399 340.044 497.411 339.843 498.434 339.843Z" fill="#F0F0F0"/>
<path d="M400.528 478.765H379.356V347.643C379.363 344.832 380.482 342.139 382.47 340.152C384.457 338.164 387.15 337.045 389.961 337.038C392.771 337.045 395.465 338.164 397.452 340.152C399.439 342.139 400.559 344.832 400.565 347.643L400.528 478.765Z" fill="#E0E0E0"/>
<path d="M389.923 443.396C425.997 443.396 455.24 414.152 455.24 378.079C455.24 342.005 425.997 312.762 389.923 312.762C353.85 312.762 324.606 342.005 324.606 378.079C324.606 414.152 353.85 443.396 389.923 443.396Z" fill="#F0F0F0"/>
<path d="M466.675 358.479C470.102 344.682 461.696 330.719 447.899 327.292C434.102 323.865 420.139 332.271 416.711 346.068C413.284 359.865 421.691 373.828 435.488 377.256C449.285 380.683 463.248 372.276 466.675 358.479Z" fill="#F0F0F0"/>
<path d="M352.126 339.479C353.479 331.173 347.842 323.344 339.537 321.991C331.231 320.638 323.401 326.275 322.049 334.581C320.696 342.886 326.333 350.716 334.638 352.068C342.944 353.421 350.774 347.785 352.126 339.479Z" fill="#F0F0F0"/>
<path d="M353.665 339.843C359.57 339.843 364.357 335.056 364.357 329.151C364.357 323.246 359.57 318.459 353.665 318.459C347.76 318.459 342.973 323.246 342.973 329.151C342.973 335.056 347.76 339.843 353.665 339.843Z" fill="#F0F0F0"/>
<path d="M255.408 400.502C245.251 402.015 235.545 405.719 226.962 411.357C226.887 401.441 225.072 392.039 220.414 384.439C213.328 391.338 207.581 400.277 202.886 409.892C201.171 391.876 196.426 374.348 185.922 363.243C170.184 373.146 162.071 389.647 158.215 407.125C151.844 395.34 142.598 385.357 131.334 378.104C121.706 388.245 118.627 402.268 118.889 416.64C107.947 403.895 95.8026 393.954 83.9586 392.79C81.0415 412.935 87.2514 431.94 95.1515 446.964C100.281 456.603 107.943 464.66 117.313 470.266C126.683 475.872 137.405 478.815 148.324 478.777H199.769C221.691 478.777 242.249 467.084 252.528 447.715C259.026 435.446 262.131 419.658 255.408 400.502Z" fill="#E0E0E0"/>
<path d="M240.709 140.399C247.057 121.782 241.961 108.523 226.474 108.523C216.734 108.523 204.652 113.744 192.883 122.233C191.556 117.387 187.812 114.495 181.79 114.495C171.186 114.495 156.575 123.46 145.119 136.105C141.894 133.041 137.624 131.317 133.175 131.285C123.021 130.709 110.739 135.867 100.06 144.243C99.5246 143.494 98.8181 142.884 97.9992 142.463C97.1803 142.043 96.2727 141.825 95.3522 141.827C89.5054 141.501 81.5802 146.709 77.6614 153.445C77.4235 153.858 77.2107 154.271 76.9854 154.697H243.789C244.29 148.813 243.251 143.905 240.709 140.399Z" fill="#F0F0F0"/>
<path d="M241.223 253.442C244.328 244.353 241.861 237.88 234.274 237.88C229.504 237.88 223.607 240.384 217.86 244.578C217.551 243.41 216.835 242.39 215.842 241.702C214.848 241.013 213.642 240.702 212.439 240.822C207.268 240.822 200.132 245.204 194.523 251.389C192.951 249.887 190.863 249.045 188.689 249.035C183.681 248.747 177.734 251.264 172.513 255.358C172.26 254.996 171.925 254.698 171.536 254.49C171.146 254.281 170.713 254.167 170.272 254.156C167.417 253.993 163.549 256.535 161.633 259.828L161.295 260.429H242.775C243.116 257.989 242.564 255.508 241.223 253.442Z" fill="#F0F0F0"/>
<path d="M429.148 184.658C428.505 184.567 427.857 184.521 427.208 184.52C427.809 175.443 424.341 169.634 416.916 169.634C411.57 169.634 404.997 172.663 398.312 177.784C400.227 160.156 394.092 148.7 380.195 148.7C369.002 148.7 354.817 156.212 340.807 168.306C339.555 161.395 335.449 157.239 328.513 157.239C316.331 157.239 299.015 170.059 285.131 188.138C283.549 186.053 281.52 184.349 279.193 183.151C276.866 181.953 274.3 181.291 271.684 181.215C260.091 180.401 245.68 187.762 232.872 199.757C232.406 198.745 231.665 197.886 230.732 197.277C229.8 196.668 228.715 196.334 227.601 196.314C221.254 195.863 212.577 202.486 207.432 211.338H439.352C444.798 197.916 440.466 186.172 429.148 184.658Z" fill="#F0F0F0"/>
<path d="M313 535.305C447.068 535.305 555.751 528.96 555.751 521.132C555.751 513.305 447.068 506.96 313 506.96C178.933 506.96 70.25 513.305 70.25 521.132C70.25 528.96 178.933 535.305 313 535.305Z" fill="#F5F5F5"/>
<path d="M61.1729 188.501L346.591 229.592L384.89 268.241L61.1729 188.501Z" fill="#AD0300"/>
<path opacity="0.6" d="M61.1729 188.501L346.591 229.592L384.89 268.241L61.1729 188.501Z" fill="white"/>
<path d="M61.1729 188.501L346.591 229.592L333.345 285.481L61.1729 188.501Z" fill="#AD0300"/>
<path opacity="0.2" d="M61.1729 188.501L346.591 229.592L333.345 285.481L61.1729 188.501Z" fill="black"/>
<path d="M327.485 123.798L344.049 201.422C344.48 203.449 344.09 205.564 342.963 207.303C341.836 209.042 340.066 210.264 338.04 210.699L190.204 242.25C188.177 242.677 186.064 242.285 184.325 241.159C182.587 240.033 181.365 238.264 180.926 236.24L164.35 158.616C163.923 156.587 164.317 154.472 165.445 152.734C166.574 150.995 168.345 149.774 170.372 149.339L318.208 117.788C320.237 117.361 322.352 117.755 324.09 118.884C325.829 120.012 327.05 121.784 327.485 123.81V123.798Z" fill="#AD0300"/>
<path opacity="0.4" d="M327.485 123.798L344.049 201.422C344.48 203.449 344.09 205.564 342.963 207.303C341.836 209.042 340.066 210.264 338.04 210.699L190.204 242.25C188.177 242.677 186.064 242.285 184.325 241.159C182.587 240.033 181.365 238.264 180.926 236.24L164.35 158.616C163.923 156.587 164.317 154.472 165.445 152.734C166.574 150.995 168.345 149.774 170.372 149.339L318.208 117.788C320.237 117.361 322.352 117.755 324.09 118.884C325.829 120.012 327.05 121.784 327.485 123.81V123.798Z" fill="black"/>
<path d="M323.843 118.715L274.451 179.349C269.871 184.971 263.508 188.86 256.417 190.374C249.325 191.888 241.929 190.936 235.452 187.675L165.603 152.494C166.733 150.87 168.438 149.738 170.373 149.326L318.209 117.776C320.138 117.365 322.151 117.701 323.843 118.715Z" fill="#AD0300"/>
<path d="M61.1729 188.501L296.586 244.453L333.345 285.481L61.1729 188.501Z" fill="#AD0300"/>
<path opacity="0.6" d="M61.1729 188.501L296.586 244.453L333.345 285.481L61.1729 188.501Z" fill="white"/>
<path d="M147.046 242.431L146.413 243.512L172.611 258.857L173.243 257.777L147.046 242.431Z" fill="#AD0300"/>
<path d="M184.81 264.542L184.177 265.622L193.597 271.14L194.23 270.06L184.81 264.542Z" fill="#AD0300"/>
<path d="M61.1729 188.501L296.586 244.453L250.826 299.604L61.1729 188.501Z" fill="#AD0300"/>
<path d="M376.051 319.586C375.734 319.586 375.419 319.527 375.124 319.41L336.788 304.236C336.175 303.989 335.684 303.509 335.423 302.902C335.162 302.294 335.152 301.608 335.395 300.993C335.638 300.378 336.114 299.884 336.72 299.619C337.326 299.354 338.012 299.34 338.629 299.579L376.977 314.753C377.52 314.967 377.97 315.364 378.251 315.876C378.532 316.387 378.626 316.98 378.516 317.553C378.406 318.126 378.1 318.643 377.65 319.014C377.2 319.385 376.634 319.587 376.051 319.586Z" fill="#AD0300"/>
<path opacity="0.3" d="M376.051 319.586C375.734 319.586 375.419 319.527 375.124 319.41L336.788 304.236C336.175 303.989 335.684 303.509 335.423 302.902C335.162 302.294 335.152 301.608 335.395 300.993C335.638 300.378 336.114 299.884 336.72 299.619C337.326 299.354 338.012 299.34 338.629 299.579L376.977 314.753C377.52 314.967 377.97 315.364 378.251 315.876C378.532 316.387 378.626 316.98 378.516 317.553C378.406 318.126 378.1 318.643 377.65 319.014C377.2 319.385 376.634 319.587 376.051 319.586Z" fill="black"/>
<path d="M373.784 297.6C373.47 297.598 373.16 297.535 372.87 297.413L352.275 289.212C351.967 289.093 351.686 288.914 351.447 288.685C351.209 288.457 351.018 288.183 350.886 287.881C350.753 287.578 350.682 287.252 350.676 286.922C350.67 286.592 350.73 286.264 350.851 285.957C350.972 285.65 351.153 285.37 351.383 285.133C351.613 284.896 351.888 284.707 352.191 284.576C352.495 284.446 352.821 284.377 353.151 284.373C353.481 284.37 353.809 284.431 354.115 284.555L374.711 292.718C375.328 292.96 375.824 293.438 376.089 294.046C376.354 294.654 376.367 295.343 376.126 295.96C375.949 296.44 375.63 296.854 375.212 297.147C374.793 297.44 374.295 297.599 373.784 297.6Z" fill="#AD0300"/>
<path opacity="0.5" d="M373.784 297.6C373.47 297.598 373.16 297.535 372.87 297.413L352.275 289.212C351.967 289.093 351.686 288.914 351.447 288.685C351.209 288.457 351.018 288.183 350.886 287.881C350.753 287.578 350.682 287.252 350.676 286.922C350.67 286.592 350.73 286.264 350.851 285.957C350.972 285.65 351.153 285.37 351.383 285.133C351.613 284.896 351.888 284.707 352.191 284.576C352.495 284.446 352.821 284.377 353.151 284.373C353.481 284.37 353.809 284.431 354.115 284.555L374.711 292.718C375.328 292.96 375.824 293.438 376.089 294.046C376.354 294.654 376.367 295.343 376.126 295.96C375.949 296.44 375.63 296.854 375.212 297.147C374.793 297.44 374.295 297.599 373.784 297.6Z" fill="white"/>
<path d="M330.729 319.26C330.416 319.256 330.107 319.197 329.815 319.085L292.418 304.236C292.11 304.117 291.828 303.938 291.59 303.709C291.352 303.481 291.161 303.207 291.028 302.905C290.896 302.602 290.825 302.277 290.819 301.946C290.813 301.616 290.872 301.288 290.994 300.981C291.115 300.674 291.296 300.394 291.526 300.157C291.756 299.92 292.031 299.731 292.334 299.601C292.637 299.47 292.964 299.401 293.294 299.397C293.624 299.394 293.952 299.455 294.258 299.579L331.655 314.377C332.198 314.592 332.648 314.989 332.929 315.5C333.21 316.011 333.304 316.604 333.194 317.177C333.084 317.75 332.778 318.267 332.328 318.638C331.878 319.009 331.312 319.211 330.729 319.21V319.26Z" fill="#AD0300"/>
<path opacity="0.3" d="M330.729 319.26C330.416 319.256 330.107 319.197 329.815 319.085L292.418 304.236C292.11 304.117 291.828 303.938 291.59 303.709C291.352 303.481 291.161 303.207 291.028 302.905C290.896 302.602 290.825 302.277 290.819 301.946C290.813 301.616 290.872 301.288 290.994 300.981C291.115 300.674 291.296 300.394 291.526 300.157C291.756 299.92 292.031 299.731 292.334 299.601C292.637 299.47 292.964 299.401 293.294 299.397C293.624 299.394 293.952 299.455 294.258 299.579L331.655 314.377C332.198 314.592 332.648 314.989 332.929 315.5C333.21 316.011 333.304 316.604 333.194 317.177C333.084 317.75 332.778 318.267 332.328 318.638C331.878 319.009 331.312 319.211 330.729 319.21V319.26Z" fill="black"/>
<path d="M466.119 206.355C469.437 212.828 472.48 219.313 475.372 225.949C478.264 232.584 480.956 239.307 483.309 246.356L484.161 249.023C484.311 249.499 484.524 250.275 484.649 250.826C484.774 251.377 484.887 252.003 484.949 252.528C485.236 254.548 485.382 256.586 485.388 258.626C485.406 262.388 485.231 266.149 484.862 269.894C484.163 277.142 483.025 284.342 481.456 291.453L474.583 290.689C474.495 283.641 474.433 276.517 474.182 269.568C474.07 266.113 473.869 262.645 473.519 259.389C473.36 257.861 473.109 256.343 472.767 254.845C472.705 254.494 472.605 254.231 472.53 253.943C472.454 253.655 472.379 253.555 472.254 253.18L471.303 250.813C468.686 244.478 465.744 238.093 462.739 231.733L453.649 212.652L466.119 206.355Z" fill="#E4897B"/>
<path d="M474.683 288.486L471.478 294.483L481.719 297.337C481.719 297.337 483.672 292.517 481.343 288.711L474.683 288.486Z" fill="#E4897B"/>
<path d="M467.559 303.122L476.974 303.873L481.719 297.338L471.477 294.483L467.559 303.122Z" fill="#E4897B"/>
<path d="M423.012 163.086C422.875 163.824 422.361 164.338 421.886 164.237C421.41 164.137 421.147 163.474 421.297 162.748C421.447 162.021 421.948 161.496 422.424 161.596C422.9 161.696 423.175 162.359 423.012 163.086Z" fill="#263238"/>
<path d="M422.436 164.338C421.114 166.386 419.518 168.244 417.691 169.859C418.118 170.312 418.637 170.668 419.214 170.902C419.792 171.135 420.412 171.241 421.034 171.211L422.436 164.338Z" fill="#DE5753"/>
<path d="M426.493 159.592C426.375 159.589 426.262 159.54 426.18 159.455C425.82 159.043 425.369 158.722 424.862 158.518C424.355 158.313 423.807 158.231 423.263 158.278C423.159 158.279 423.058 158.243 422.979 158.177C422.899 158.11 422.845 158.018 422.827 157.916C422.809 157.814 422.828 157.708 422.88 157.619C422.932 157.529 423.015 157.461 423.113 157.426C423.809 157.338 424.516 157.424 425.171 157.675C425.827 157.926 426.41 158.335 426.869 158.866C426.949 158.948 426.994 159.058 426.994 159.173C426.994 159.288 426.949 159.398 426.869 159.48C426.819 159.526 426.759 159.56 426.694 159.579C426.629 159.599 426.56 159.603 426.493 159.592Z" fill="#263238"/>
<path d="M443.721 173.314C442.407 180.05 441.092 192.37 445.799 196.865C445.799 196.865 443.959 203.688 431.451 203.688C417.679 203.688 424.891 196.865 424.891 196.865C432.403 195.074 432.19 189.503 430.888 184.282L443.721 173.314Z" fill="#E4897B"/>
<path d="M447.69 201.109C448.679 197.816 449.768 194.047 447.514 192.858C445.01 191.606 431.401 190.229 426.706 192.67C422.011 195.112 423.351 201.81 423.351 201.81L447.69 201.109Z" fill="#263238"/>
<path d="M476.561 513.32C476.172 513.372 475.777 513.345 475.398 513.242C475.02 513.139 474.666 512.961 474.357 512.719C474.248 512.568 474.189 512.386 474.189 512.2C474.189 512.013 474.248 511.831 474.357 511.68C474.429 511.55 474.527 511.437 474.646 511.349C474.765 511.26 474.901 511.198 475.046 511.167C476.398 510.866 478.927 512.594 479.04 512.669C479.072 512.696 479.097 512.731 479.112 512.77C479.128 512.81 479.133 512.853 479.127 512.894C479.12 512.935 479.101 512.972 479.072 513.002C479.042 513.031 479.005 513.05 478.964 513.057C478.174 513.228 477.369 513.316 476.561 513.32ZM475.409 511.567H475.146C475.061 511.585 474.981 511.621 474.912 511.673C474.843 511.725 474.786 511.791 474.745 511.868C474.545 512.218 474.67 512.369 474.745 512.419C475.133 512.944 477.011 512.944 478.389 512.719C477.491 512.127 476.473 511.742 475.409 511.592V511.567Z" fill="#AD0300"/>
<path d="M478.915 513.095H478.815C477.863 512.569 476.023 510.591 476.211 509.539C476.243 509.377 476.33 509.23 476.458 509.125C476.586 509.02 476.746 508.963 476.912 508.963C477.077 508.945 477.244 508.961 477.403 509.008C477.562 509.055 477.71 509.134 477.838 509.239C478.902 510.115 479.09 512.769 479.09 512.882C479.095 512.921 479.089 512.962 479.071 512.997C479.053 513.033 479.025 513.063 478.99 513.082C478.966 513.092 478.941 513.096 478.915 513.095ZM477.062 509.339H477.012C476.724 509.339 476.699 509.514 476.686 509.564C476.574 510.178 477.751 511.692 478.69 512.406C478.626 511.36 478.251 510.357 477.613 509.527C477.529 509.461 477.432 509.412 477.329 509.384C477.226 509.356 477.118 509.349 477.012 509.364L477.062 509.339Z" fill="#AD0300"/>
<path d="M421.335 513.32C420.159 513.32 419.019 513.157 418.631 512.632C418.533 512.492 418.48 512.326 418.48 512.156C418.48 511.985 418.533 511.819 418.631 511.68C418.707 511.551 418.808 511.44 418.929 511.351C419.05 511.263 419.187 511.2 419.332 511.167C420.847 510.754 424.077 512.581 424.215 512.657C424.252 512.68 424.281 512.714 424.299 512.754C424.317 512.794 424.322 512.839 424.315 512.882C424.308 512.926 424.287 512.966 424.256 512.998C424.224 513.029 424.184 513.05 424.14 513.057C423.215 513.231 422.276 513.319 421.335 513.32ZM419.871 511.542C419.734 511.522 419.594 511.522 419.457 511.542C419.369 511.56 419.286 511.595 419.213 511.647C419.139 511.699 419.078 511.766 419.032 511.843C418.869 512.118 418.932 512.243 419.032 512.319C419.445 512.894 421.774 512.932 423.501 512.694C422.376 512.086 421.143 511.704 419.871 511.567V511.542Z" fill="#AD0300"/>
<path d="M424.115 513.095H424.027C422.913 512.606 420.722 510.591 420.885 509.576C420.885 509.326 421.097 509.026 421.698 508.963C421.922 508.929 422.15 508.945 422.367 509.01C422.583 509.075 422.782 509.187 422.95 509.339C424.127 510.29 424.365 512.769 424.378 512.882C424.382 512.92 424.377 512.959 424.361 512.994C424.346 513.029 424.321 513.06 424.29 513.082C424.263 513.097 424.234 513.105 424.204 513.107C424.173 513.109 424.143 513.105 424.115 513.095ZM421.874 509.339H421.736C421.348 509.339 421.323 509.539 421.31 509.589C421.21 510.215 422.712 511.78 423.814 512.456C423.706 511.404 423.268 510.414 422.562 509.627C422.384 509.472 422.159 509.38 421.924 509.364L421.874 509.339Z" fill="#AD0300"/>
<path d="M434.23 512.869H425.028L424.114 491.573H433.316L434.23 512.869Z" fill="#E4897B"/>
<path d="M489.457 512.869H480.255L475.635 491.573H484.824L489.457 512.869Z" fill="#E4897B"/>
<path d="M479.603 511.805H489.932C490.116 511.807 490.295 511.87 490.438 511.986C490.581 512.102 490.681 512.264 490.721 512.444L492.536 520.619C492.578 520.818 492.574 521.024 492.524 521.222C492.475 521.419 492.382 521.603 492.252 521.759C492.122 521.915 491.959 522.041 491.774 522.125C491.589 522.209 491.387 522.251 491.184 522.247C487.578 522.184 485.825 521.971 481.281 521.971C478.489 521.971 472.729 522.272 468.861 522.272C464.992 522.272 464.504 518.516 466.081 518.103C473.168 516.55 475.834 514.409 478.101 512.381C478.512 512.009 479.048 511.803 479.603 511.805Z" fill="#263238"/>
<path d="M425.091 511.805H435.107C435.292 511.807 435.47 511.87 435.613 511.986C435.757 512.102 435.856 512.264 435.896 512.444L437.711 520.619C437.755 520.816 437.753 521.021 437.706 521.217C437.659 521.414 437.569 521.597 437.441 521.754C437.314 521.91 437.152 522.036 436.969 522.121C436.786 522.207 436.586 522.25 436.384 522.247C432.766 522.184 427.533 521.971 422.975 521.971C417.654 521.971 413.047 522.272 406.799 522.272C403.043 522.272 401.979 518.516 403.557 518.103C410.756 516.525 416.628 516.362 422.85 512.531C423.513 512.081 424.29 511.829 425.091 511.805Z" fill="#263238"/>
<path d="M420.671 213.015C412.98 212.419 405.327 211.404 397.747 209.973C393.991 209.247 390.16 208.433 386.354 207.406C382.453 206.408 378.622 205.153 374.886 203.65C373.922 203.25 372.945 202.812 371.981 202.398C370.896 201.864 369.85 201.253 368.851 200.57C367.048 199.381 365.496 198.142 363.956 196.915C360.888 194.411 358.046 191.907 355.192 189.34C349.595 184.157 344.287 178.798 339.166 173.164L343.773 168.018L361.94 181.077C364.932 183.23 367.962 185.346 370.942 187.337C372.419 188.326 373.934 189.252 375.324 190.041C375.905 190.373 376.507 190.665 377.127 190.918C377.865 191.205 378.617 191.493 379.405 191.769C386.172 193.852 393.092 195.401 400.101 196.401C407.25 197.528 414.637 198.455 421.773 199.206L420.671 213.015Z" fill="#E4897B"/>
<path d="M462.263 198.943C470.889 200.921 479.603 226.124 479.603 226.124L461.862 238.857C461.862 238.857 456.854 227.113 452.022 216.846C446.964 206.092 453.449 196.927 462.263 198.943Z" fill="#AD0300"/>
<path opacity="0.4" d="M462.263 198.943C470.889 200.921 479.603 226.124 479.603 226.124L461.862 238.857C461.862 238.857 456.854 227.113 452.022 216.846C446.964 206.092 453.449 196.927 462.263 198.943Z" fill="black"/>
<path d="M457.293 212.715L453.774 220.59C457.418 228.452 460.748 236.24 461.637 238.318C461.512 229.016 459.746 217.472 457.293 212.715Z" fill="#AD0300"/>
<path opacity="0.6" d="M457.293 212.715L453.774 220.59C457.418 228.452 460.748 236.24 461.637 238.318C461.512 229.016 459.746 217.472 457.293 212.715Z" fill="black"/>
<path d="M410.743 199.419C410.743 199.419 400.952 210.474 410.192 278.921H459.383C459.734 271.409 454.989 234.525 462.263 198.943C456.825 197.896 451.326 197.202 445.799 196.865C438.835 196.464 431.854 196.464 424.891 196.865C420.115 197.346 415.385 198.2 410.743 199.419Z" fill="#AD0300"/>
<path opacity="0.4" d="M410.743 199.419C410.743 199.419 400.952 210.474 410.192 278.921H459.383C459.734 271.409 454.989 234.525 462.263 198.943C456.825 197.896 451.326 197.202 445.799 196.865C438.835 196.464 431.854 196.464 424.891 196.865C420.115 197.346 415.385 198.2 410.743 199.419Z" fill="black"/>
<path d="M407.1 212.715C406.774 215.306 406.524 218.374 406.361 221.992C411.219 220.534 415.835 218.366 420.058 215.557L407.1 212.715Z" fill="#AD0300"/>
<path opacity="0.6" d="M407.1 212.715C406.774 215.306 406.524 218.374 406.361 221.992C411.219 220.534 415.835 218.366 420.058 215.557L407.1 212.715Z" fill="black"/>
<path d="M428.184 214.092C421.598 219.926 396.458 219.338 396.458 219.338L395.632 194.999C404.122 196.208 412.685 196.827 421.26 196.852C435.27 196.564 435.37 207.657 428.184 214.092Z" fill="#AD0300"/>
<path opacity="0.4" d="M428.184 214.092C421.598 219.926 396.458 219.338 396.458 219.338L395.632 194.999C404.122 196.208 412.685 196.827 421.26 196.852C435.27 196.564 435.37 207.657 428.184 214.092Z" fill="black"/>
<path d="M344.011 168.068L337.751 160.694L331.003 168.206C331.003 168.206 335.16 175.192 341.758 174.091L344.011 168.068Z" fill="#E4897B"/>
<path d="M328.787 152.093L326.358 161.721L330.953 168.156L337.702 160.694L328.787 152.093Z" fill="#E4897B"/>
<path d="M424.114 491.585L424.59 502.553H433.792L433.316 491.585H424.114Z" fill="#CE6F64"/>
<path d="M484.837 491.585H475.635L478.014 502.553H487.216L484.837 491.585Z" fill="#CE6F64"/>
<path d="M429.648 153.996C421.397 150.24 418.793 133.551 442.531 137.72C442.531 137.72 438.95 141.676 446.212 144.18C453.474 146.684 447.401 162.147 429.648 153.996Z" fill="#263238"/>
<path d="M447.577 166.516C445.21 175.28 444.284 180.614 438.813 184.282C430.624 189.791 420.446 183.468 420.12 174.116C419.832 165.715 423.751 152.707 433.204 150.929C435.29 150.52 437.446 150.652 439.467 151.313C441.488 151.974 443.306 153.142 444.747 154.705C446.188 156.268 447.205 158.174 447.701 160.242C448.196 162.31 448.153 164.47 447.577 166.516Z" fill="#E4897B"/>
<path d="M442.206 142.102C447.828 145.232 455.44 147.11 454.726 151.567C453.787 157.013 459.321 153.608 458.032 161.708C457.193 167.004 447.427 183.055 440.504 182.279C430.162 181.027 431.477 165.302 431.439 157.013C431.414 152.118 431.189 135.93 442.206 142.102Z" fill="#263238"/>
<path d="M430.199 149.126C427.695 149.714 424.377 164.15 434.08 165.477C445.236 166.992 430.199 149.126 430.199 149.126Z" fill="#263238"/>
<path d="M430.449 154.246C427.382 154.522 420.433 150.828 421.285 145.27C421.285 145.232 425.679 151.767 430.449 154.246Z" fill="#263238"/>
<path d="M435.007 166.629C434.065 168.693 432.467 170.388 430.462 171.449C427.82 172.826 426.33 170.823 426.931 168.169C427.47 165.79 429.498 162.197 432.215 161.909C434.932 161.621 436.096 164.125 435.007 166.629Z" fill="#E4897B"/>
<path d="M448.779 156.5C450.65 155.688 452.291 154.425 453.554 152.823C454.817 151.222 455.663 149.332 456.016 147.323C456.016 147.323 460.147 158.804 448.779 156.5Z" fill="#263238"/>
<path d="M459.221 156.312C458.35 155.727 457.347 155.367 456.303 155.264C455.258 155.162 454.205 155.32 453.236 155.724C453.236 155.724 457.092 150.728 459.221 156.312Z" fill="#263238"/>
<path d="M427.646 278.921C427.646 278.921 438.087 349.208 443.809 375.538C450.069 404.334 473.732 500.437 473.732 500.437H490.571C490.571 500.437 474.984 406.7 471.403 378.104C467.522 347.117 459.384 278.871 459.384 278.871L427.646 278.921Z" fill="#AD0300"/>
<path opacity="0.5" d="M427.646 278.921C427.646 278.921 438.087 349.208 443.809 375.538C450.069 404.334 473.732 500.437 473.732 500.437H490.571C490.571 500.437 474.984 406.7 471.403 378.104C467.522 347.117 459.384 278.871 459.384 278.871L427.646 278.921Z" fill="white"/>
<path d="M471.039 494.227C470.964 494.227 472.78 500.7 472.78 500.7H491.735L491.384 494.928L471.039 494.227Z" fill="#AD0300"/>
<path opacity="0.1" d="M471.039 494.227C470.964 494.227 472.78 500.7 472.78 500.7H491.735L491.384 494.928L471.039 494.227Z" fill="black"/>
<path d="M434.243 303.961C446.312 306.327 445.035 351.336 443.583 374.486C440.103 358.122 435.007 326.634 431.526 304.286C432.368 303.871 433.327 303.756 434.243 303.961Z" fill="#AD0300"/>
<path opacity="0.4" d="M434.243 303.961C446.312 306.327 445.035 351.336 443.583 374.486C440.103 358.122 435.007 326.634 431.526 304.286C432.368 303.871 433.327 303.756 434.243 303.961Z" fill="white"/>
<path d="M410.192 278.921C410.192 278.921 408.94 347.68 409.929 375.738C410.968 404.909 421.197 500.437 421.197 500.437H436.772C436.772 500.437 437.348 406.612 438.024 377.966C438.788 346.729 442.556 278.921 442.556 278.921H410.192Z" fill="#AD0300"/>
<path opacity="0.5" d="M410.192 278.921C410.192 278.921 408.94 347.68 409.929 375.738C410.968 404.909 421.197 500.437 421.197 500.437H436.772C436.772 500.437 437.348 406.612 438.024 377.966C438.788 346.729 442.556 278.921 442.556 278.921H410.192Z" fill="white"/>
<path d="M424.427 489.244C424.389 489.244 424.353 489.23 424.325 489.205C424.297 489.179 424.28 489.144 424.277 489.106C421.523 462.664 415.05 398.687 414.261 375.738C413.422 352.313 414.186 299.754 414.436 284.204C414.436 284.164 414.452 284.126 414.48 284.098C414.508 284.07 414.547 284.054 414.587 284.054C414.628 284.054 414.667 284.069 414.697 284.097C414.728 284.125 414.746 284.163 414.749 284.204C414.499 299.754 413.735 352.313 414.574 375.725C415.388 398.674 421.861 462.627 424.59 489.069C424.59 489.111 424.575 489.152 424.548 489.185C424.52 489.217 424.482 489.238 424.44 489.244H424.427Z" fill="#AD0300"/>
<path opacity="0.4" d="M424.427 489.244C424.389 489.244 424.353 489.23 424.325 489.205C424.297 489.179 424.28 489.144 424.277 489.106C421.523 462.664 415.05 398.687 414.261 375.738C413.422 352.313 414.186 299.754 414.436 284.204C414.436 284.164 414.452 284.126 414.48 284.098C414.508 284.07 414.547 284.054 414.587 284.054C414.628 284.054 414.667 284.069 414.697 284.097C414.728 284.125 414.746 284.163 414.749 284.204C414.499 299.754 413.735 352.313 414.574 375.725C415.388 398.674 421.861 462.627 424.59 489.069C424.59 489.111 424.575 489.152 424.548 489.185C424.52 489.217 424.482 489.238 424.44 489.244H424.427Z" fill="white"/>
<path d="M418.168 494.227C418.105 494.227 419.057 500.7 419.057 500.7H438L438.513 494.928L418.168 494.227Z" fill="#AD0300"/>
<path opacity="0.1" d="M418.168 494.227C418.105 494.227 419.057 500.7 419.057 500.7H438L438.513 494.928L418.168 494.227Z" fill="black"/>
</svg>
