<svg width="14" height="14" viewBox="0 0 14 14" fill="none" xmlns="http://www.w3.org/2000/svg">
<path d="M7.00034 5.00016C6.46991 5.00016 5.9612 5.21088 5.58613 5.58595C5.21105 5.96102 5.00034 6.46973 5.00034 7.00016C5.00034 7.5306 5.21105 8.0393 5.58613 8.41438C5.9612 8.78945 6.46991 9.00016 7.00034 9.00016C7.53077 9.00016 8.03948 8.78945 8.41455 8.41438C8.78963 8.0393 9.00034 7.5306 9.00034 7.00016C9.00034 6.46973 8.78963 5.96102 8.41455 5.58595C8.03948 5.21088 7.53077 5.00016 7.00034 5.00016ZM7.00034 3.66683C7.8844 3.66683 8.73224 4.01802 9.35736 4.64314C9.98249 5.26826 10.3337 6.11611 10.3337 7.00016C10.3337 7.88422 9.98249 8.73206 9.35736 9.35719C8.73224 9.98231 7.8844 10.3335 7.00034 10.3335C6.11629 10.3335 5.26844 9.98231 4.64332 9.35719C4.0182 8.73206 3.66701 7.88422 3.66701 7.00016C3.66701 6.11611 4.0182 5.26826 4.64332 4.64314C5.26844 4.01802 6.11629 3.66683 7.00034 3.66683ZM11.3337 3.50016C11.3337 3.72118 11.2459 3.93314 11.0896 4.08942C10.9333 4.2457 10.7214 4.3335 10.5003 4.3335C10.2793 4.3335 10.0674 4.2457 9.91109 4.08942C9.75481 3.93314 9.66701 3.72118 9.66701 3.50016C9.66701 3.27915 9.75481 3.06719 9.91109 2.91091C10.0674 2.75463 10.2793 2.66683 10.5003 2.66683C10.7214 2.66683 10.9333 2.75463 11.0896 2.91091C11.2459 3.06719 11.3337 3.27915 11.3337 3.50016ZM7.00034 1.66683C5.35101 1.66683 5.08167 1.6715 4.31434 1.7055C3.79167 1.73016 3.44101 1.80016 3.11567 1.92683C2.84356 2.02708 2.59749 2.18725 2.39567 2.3955C2.18719 2.59724 2.02678 2.84332 1.92634 3.1155C1.79967 3.44216 1.72967 3.79216 1.70567 4.31416C1.67101 5.05016 1.66634 5.3075 1.66634 7.00016C1.66634 8.65016 1.67101 8.91883 1.70501 9.68616C1.72967 10.2082 1.79967 10.5595 1.92567 10.8842C2.03901 11.1742 2.17234 11.3828 2.39367 11.6042C2.61834 11.8282 2.82701 11.9622 3.11367 12.0728C3.44301 12.2002 3.79367 12.2708 4.31367 12.2948C5.04967 12.3295 5.30701 12.3335 6.99967 12.3335C8.64967 12.3335 8.91834 12.3288 9.68567 12.2948C10.207 12.2702 10.5577 12.2002 10.8837 12.0742C11.1558 11.9739 11.4019 11.8137 11.6037 11.6055C11.8283 11.3815 11.9623 11.1728 12.073 10.8855C12.1997 10.5575 12.2703 10.2068 12.2943 9.6855C12.329 8.95016 12.333 8.69216 12.333 7.00016C12.333 5.35083 12.3283 5.0815 12.2943 4.31416C12.2697 3.79283 12.199 3.44083 12.073 3.1155C11.9728 2.84338 11.8126 2.59731 11.6043 2.3955C11.4026 2.18701 11.1565 2.0266 10.8843 1.92616C10.5577 1.7995 10.207 1.7295 9.68567 1.7055C8.95034 1.67083 8.69301 1.66683 6.99967 1.66683M6.99967 0.333496C8.81101 0.333496 9.03701 0.340163 9.74834 0.373496C10.4577 0.406829 10.9417 0.518163 11.3663 0.683496C11.8063 0.85283 12.177 1.08216 12.5477 1.45216C12.8868 1.78532 13.1491 2.18848 13.3163 2.6335C13.481 3.05816 13.593 3.54216 13.6263 4.25216C13.6577 4.96283 13.6663 5.18883 13.6663 7.00016C13.6663 8.8115 13.6597 9.0375 13.6263 9.74816C13.593 10.4588 13.481 10.9415 13.3163 11.3668C13.1491 11.8118 12.8868 12.215 12.5477 12.5482C12.2145 12.8873 11.8114 13.1496 11.3663 13.3168C10.9417 13.4815 10.4577 13.5935 9.74834 13.6268C9.03701 13.6582 8.81101 13.6668 6.99967 13.6668C5.18834 13.6668 4.96234 13.6602 4.25101 13.6268C3.54167 13.5935 3.05834 13.4815 2.63301 13.3168C2.18799 13.1496 1.78483 12.8873 1.45167 12.5482C1.11255 12.215 0.850218 11.8118 0.683008 11.3668C0.517675 10.9422 0.406341 10.4582 0.373008 9.74816C0.341008 9.0375 0.333008 8.8115 0.333008 7.00016C0.333008 5.18883 0.339674 4.96283 0.373008 4.25216C0.406341 3.5415 0.517675 3.05883 0.683008 2.6335C0.850218 2.18848 1.11255 1.78532 1.45167 1.45216C1.78483 1.11303 2.18799 0.850707 2.63301 0.683496C3.05767 0.518163 3.54101 0.406829 4.25101 0.373496C4.96301 0.342163 5.18901 0.333496 7.00034 0.333496" fill="white"/>
</svg>
