<svg width="14" height="14" viewBox="0 0 14 14" fill="none" xmlns="http://www.w3.org/2000/svg">
<path d="M9.08644 9.26048L9.39044 8.95848L8.68444 8.24914L8.38177 8.55114L9.08644 9.26048ZM10.4098 8.83181L11.6838 9.52448L12.1604 8.64581L10.8871 7.95381L10.4098 8.83181ZM11.9284 10.9005L10.9818 11.8425L11.6864 12.5511L12.6331 11.6098L11.9284 10.9005ZM10.4044 12.1451C9.43778 12.2358 6.93777 12.1551 4.22977 9.46314L3.52444 10.1718C6.47911 13.1098 9.29177 13.2538 10.4978 13.1411L10.4044 12.1451ZM4.22977 9.46314C1.64911 6.89648 1.22111 4.73848 1.16777 3.80181L0.169108 3.85848C0.235774 5.03714 0.765775 7.42914 3.52444 10.1718L4.22977 9.46314ZM5.14644 5.34314L5.33777 5.15248L4.63377 4.44381L4.44244 4.63381L5.14644 5.34314ZM5.48977 2.72914L4.64977 1.60648L3.84911 2.20648L4.68911 3.32848L5.48977 2.72914ZM1.82244 1.36181L0.775775 2.40181L1.48111 3.11114L2.52711 2.07114L1.82244 1.36181ZM4.79444 4.98848C4.44111 4.63381 4.44111 4.63381 4.44111 4.63514H4.43977L4.43777 4.63781C4.40609 4.66975 4.37773 4.70482 4.35311 4.74248C4.31711 4.79581 4.27777 4.86581 4.24444 4.95448C4.16329 5.18336 4.14307 5.42942 4.18577 5.66848C4.27511 6.24514 4.67244 7.00714 5.68977 8.01914L6.39511 7.30981C5.44244 6.36314 5.21578 5.78714 5.17377 5.51514C5.15377 5.38581 5.17444 5.32181 5.18044 5.30714C5.18444 5.29825 5.18444 5.29692 5.18044 5.30314C5.1745 5.31234 5.16781 5.32104 5.16044 5.32914L5.15377 5.33581L5.14711 5.34181L4.79444 4.98848ZM5.68977 8.01914C6.70778 9.03114 7.47377 9.42581 8.05111 9.51381C8.34644 9.55914 8.58444 9.52314 8.76511 9.45581C8.86631 9.41879 8.96086 9.36567 9.04511 9.29848L9.07844 9.26848L9.08311 9.26448L9.08511 9.26248L9.08578 9.26114C9.08578 9.26114 9.08644 9.26048 8.73378 8.90581C8.38044 8.55114 8.38244 8.55048 8.38244 8.55048L8.38377 8.54914L8.38511 8.54781L8.38911 8.54448L8.39577 8.53781L8.42111 8.51781C8.42733 8.51381 8.42577 8.51426 8.41644 8.51914C8.39977 8.52514 8.33444 8.54581 8.20311 8.52581C7.92711 8.48314 7.34711 8.25648 6.39511 7.30981L5.68977 8.01914ZM4.64977 1.60581C3.96977 0.699144 2.63377 0.555144 1.82244 1.36181L2.52711 2.07114C2.88177 1.71848 3.51111 1.75514 3.84911 2.20648L4.64977 1.60581ZM1.16844 3.80248C1.15511 3.57181 1.26111 3.33048 1.48111 3.11181L0.775108 2.40248C0.417108 2.75848 0.135108 3.26248 0.169108 3.85848L1.16844 3.80248ZM10.9818 11.8425C10.7991 12.0251 10.6018 12.1278 10.4051 12.1458L10.4978 13.1411C10.9878 13.0951 11.3884 12.8485 11.6871 12.5518L10.9818 11.8425ZM5.33777 5.15248C5.99444 4.49981 6.04311 3.46848 5.49044 2.72981L4.68977 3.32914C4.95844 3.68848 4.91844 4.15981 4.63311 4.44448L5.33777 5.15248ZM11.6844 9.52514C12.2291 9.82114 12.3138 10.5185 11.9291 10.9011L12.6344 11.6098C13.5278 10.7211 13.2524 9.23914 12.1611 8.64648L11.6844 9.52514ZM9.39044 8.95914C9.64644 8.70448 10.0584 8.64181 10.4104 8.83248L10.8878 7.95448C10.1651 7.56114 9.26911 7.66981 8.68511 8.24981L9.39044 8.95914Z" fill="white"/>
</svg>
